<?xml version="1.0" standalone="no"?>
<!DOCTYPE svg PUBLIC "-//W3C//DTD SVG 20010904//EN"
 "http://www.w3.org/TR/2001/REC-SVG-20010904/DTD/svg10.dtd">
<svg version="1.0" xmlns="http://www.w3.org/2000/svg"
 width="539.000000pt" height="538.000000pt" viewBox="0 0 539.000000 538.000000"
 preserveAspectRatio="xMidYMid meet">
<metadata>
Created by potrace 1.16, written by Peter Selinger 2001-2019
</metadata>
<g transform="translate(0.000000,538.000000) scale(0.100000,-0.100000)"
fill="#000000" stroke="none">
<path d="M3771 5353 c-19 -9 -48 -39 -66 -67 -29 -45 -542 -933 -1523 -2636
-179 -311 -358 -621 -398 -690 -92 -158 -93 -160 -63 -167 50 -13 178 -84 223
-124 27 -24 51 -38 56 -33 5 5 64 106 132 224 69 118 244 422 390 675 146 253
291 505 323 560 32 55 301 521 598 1035 297 514 550 956 563 981 13 26 24 64
24 85 -1 54 -31 116 -71 145 -44 31 -139 37 -188 12z m59 -119 c0 -20 -1177
-2065 -1197 -2081 -19 -15 -53 0 -53 23 0 19 1177 2065 1198 2081 18 15 52 0
52 -23z"/>
<path d="M2673 2628 c-6 -7 -33 -53 -60 -103 -28 -49 -87 -153 -132 -230 l-81
-140 1235 -3 c1209 -2 1235 -2 1235 -21 0 -11 -3 -26 -6 -35 -6 -14 -126 -16
-1258 -16 l-1251 0 -33 -60 -33 -61 30 -38 c58 -73 239 -237 330 -300 103 -70
297 -167 415 -205 626 -206 1297 -39 1754 438 45 47 86 96 91 109 4 12 19 104
32 205 l23 182 108 0 c59 0 108 -2 108 -5 0 -10 -92 -188 -118 -229 -188 -292
-414 -498 -707 -644 -473 -236 -1045 -235 -1520 4 -183 92 -385 246 -503 382
-30 34 -57 62 -61 62 -4 0 -24 -29 -44 -65 -44 -77 -45 -74 50 -166 163 -158
316 -266 508 -359 355 -172 738 -226 1135 -159 591 99 1103 486 1363 1030 37
76 107 257 107 275 0 2 -93 4 -206 4 -167 0 -205 3 -201 13 3 8 8 44 12 80 l7
67 -1160 0 c-916 0 -1162 -3 -1169 -12z"/>
<path d="M1816 2453 c13 -50 51 -147 60 -150 8 -2 104 156 104 171 0 3 -38 6
-85 6 l-85 0 6 -27z"/>
<path d="M1316 1734 c-33 -8 -91 -30 -130 -48 -69 -34 -156 -99 -146 -109 3
-3 172 -102 375 -220 204 -117 431 -249 505 -292 74 -43 154 -89 176 -102 l42
-23 6 22 c3 13 6 66 6 119 0 192 -61 341 -195 474 -137 136 -284 196 -479 194
-56 0 -128 -7 -160 -15z m269 -63 l40 -9 -42 -1 c-62 -2 -189 -45 -263 -90
-63 -38 -65 -38 -97 -23 -18 9 -33 19 -33 23 0 15 146 78 215 93 80 17 123 18
180 7z"/>
<path d="M2340 1578 c0 -2 13 -98 29 -213 17 -116 44 -313 61 -440 17 -126 34
-237 38 -246 6 -15 25 -14 197 16 241 41 243 41 267 -66 37 -163 42 -200 42
-354 1 -168 3 -161 -52 -268 -2 -4 337 -6 755 -5 l758 3 47 23 c85 42 152 126
187 233 10 33 192 1311 186 1317 -1 1 -39 -27 -85 -63 -274 -217 -578 -344
-935 -391 -160 -21 -424 -14 -585 16 -292 54 -588 189 -820 374 -66 53 -90 70
-90 64z"/>
<path d="M970 1423 c-62 -191 -76 -355 -45 -505 42 -201 190 -395 417 -547
227 -152 636 -305 948 -356 123 -20 335 -20 436 0 156 31 159 37 158 265 0
149 -21 330 -39 348 -3 3 -81 -6 -173 -21 -92 -15 -209 -32 -259 -38 l-93 -11
-87 66 c-49 36 -91 66 -95 66 -5 0 -8 -25 -8 -55 0 -53 -1 -55 -21 -45 -29 16
-59 70 -59 108 0 19 12 68 26 110 22 63 24 78 13 85 -22 13 -1052 608 -1071
618 -15 8 -21 -4 -48 -88z"/>
<path d="M789 1203 c-134 -167 -257 -393 -301 -548 -32 -114 -31 -250 1 -323
77 -173 341 -278 781 -313 152 -12 659 -5 735 10 l40 8 -40 10 c-22 6 -88 22
-148 36 -80 19 -146 44 -260 100 -437 211 -685 446 -752 712 -19 76 -19 214 0
306 9 40 13 74 11 76 -2 3 -33 -31 -67 -74z"/>
<path d="M471 889 c-250 -136 -435 -345 -457 -516 -5 -45 -2 -61 20 -106 57
-115 189 -158 484 -157 l137 1 -60 28 c-234 108 -276 474 -84 729 23 29 39 55
37 57 -2 2 -37 -14 -77 -36z"/>
</g>
</svg>
