<svg id="Capa_1" enable-background="new 0 0 512 512" height="512" viewBox="0 0 512 512" width="512" xmlns="http://www.w3.org/2000/svg"><g><path d="m495.695 1.583c-7.412-3.701-16.42-.69-20.119 6.723l-136.934 274.05-26.803-13.426c-22.236-11.139-49.248-2.158-60.389 20.082l-13.435 26.823c-29.546 58.986-128.388 72.106-129.368 72.23-6.56.815-11.813 5.828-12.934 12.343-1.12 6.514 2.155 12.994 8.065 15.955l71.66 35.894c12.938 6.481 27.143 9.042 41.193 7.582-1.668 6.801 1.595 13.85 7.851 16.984l67.059 33.589c5.483 2.747 12.088 1.878 16.675-2.193 2.556-2.268 62.894-56.179 90.738-111.77l13.436-26.823c11.111-22.185 2.104-49.275-20.082-60.388l-26.844-13.446 136.954-274.089c3.7-7.412.69-16.421-6.723-20.12zm-200.027 477.342-44.337-22.208 6.717-13.412c2.718-5.424 1.899-11.952-2.072-16.538-3.972-4.586-10.315-6.328-16.072-4.414l-16.676 5.545c-11.405 3.793-23.604 2.917-34.353-2.466l-34.077-17.069c33.074-9.965 77.372-29.498 102.396-66.146l107.663 53.928c-21.152 35.128-54.492 68.75-69.189 82.78zm89.898-122.735-6.718 13.412-107.293-53.742 6.719-13.412c3.71-7.409 12.712-10.409 20.129-6.694 19.375 9.705 67.061 33.59 80.47 40.307 7.395 3.704 10.398 12.734 6.693 20.129z"/><circle cx="173" cy="497" r="15"/><circle cx="23" cy="407" r="15"/><circle cx="83" cy="437" r="15"/><path d="m113 482h-60c-8.271 0-15-6.729-15-15 0-8.284-6.716-15-15-15s-15 6.716-15 15c0 24.813 20.187 45 45 45h60c8.284 0 15-6.716 15-15s-6.716-15-15-15z"/></g></svg>