<?xml version="1.0" standalone="no"?>
<!DOCTYPE svg PUBLIC "-//W3C//DTD SVG 20010904//EN"
 "http://www.w3.org/TR/2001/REC-SVG-20010904/DTD/svg10.dtd">
<svg version="1.0" xmlns="http://www.w3.org/2000/svg"
 width="840.000000pt" height="879.000000pt" viewBox="0 0 840.000000 879.000000"
 preserveAspectRatio="xMidYMid meet">
<metadata>
Created by potrace 1.16, written by Peter Selinger 2001-2019
</metadata>
<g transform="translate(0.000000,879.000000) scale(0.100000,-0.100000)"
fill="#000000" stroke="none">
<path d="M7649 8356 c-68 -27 -106 -54 -148 -101 -49 -56 -7 47 -476 -1180
-57 -148 -140 -367 -185 -485 -45 -118 -309 -808 -586 -1534 -277 -725 -504
-1321 -504 -1325 0 -8 896 -332 924 -334 18 -2 11 -22 572 1678 278 840 548
1658 750 2265 186 560 198 599 198 670 0 208 -179 370 -409 370 -61 0 -94 -6
-136 -24z"/>
<path d="M2560 7715 c-369 -59 -720 -274 -940 -577 l-55 -75 -65 -7 c-65 -7
-170 -35 -170 -45 0 -3 28 -38 63 -76 34 -39 83 -94 108 -123 l45 -53 65 16
c35 8 82 15 105 15 37 0 42 3 58 37 91 191 288 381 501 484 445 215 949 124
1293 -235 92 -96 156 -189 212 -310 35 -72 51 -122 90 -273 l11 -43 127 0
c217 0 345 -50 484 -191 64 -64 85 -94 125 -178 l48 -100 163 -1 c187 0 176
-8 142 103 -84 271 -272 489 -523 607 -83 39 -226 80 -279 80 -25 0 -32 11
-87 124 -220 461 -622 758 -1114 825 -104 15 -302 12 -407 -4z"/>
<path d="M475 7422 c-51 -25 -89 -67 -104 -114 -23 -70 -7 -97 221 -375 116
-142 218 -266 226 -275 13 -16 10 -24 -35 -85 -108 -147 -175 -289 -219 -461
-13 -52 -24 -101 -24 -108 0 -11 31 -14 159 -14 l158 0 18 68 c25 92 74 205
119 276 37 57 38 58 55 40 10 -10 283 -341 608 -734 324 -393 637 -773 695
-844 99 -119 106 -131 100 -160 -14 -61 -7 -159 15 -208 74 -163 259 -234 427
-164 54 23 131 100 157 159 35 79 34 192 -4 269 -51 104 -146 168 -262 176
l-70 5 -271 331 c-972 1185 -1799 2184 -1824 2204 -40 32 -95 37 -145 14z"/>
<path d="M283 5811 c-25 -12 -48 -32 -57 -50 -30 -57 -23 -125 84 -791 11 -69
150 -960 310 -1980 430 -2757 383 -2475 414 -2515 58 -76 -69 -70 1464 -73
l1373 -2 -98 98 c-233 231 -354 508 -370 847 -17 369 93 740 322 1080 247 368
648 727 1145 1025 58 34 106 64 108 65 4 4 24 125 96 587 31 194 99 625 151
958 64 406 94 617 89 643 -7 46 -47 95 -91 113 -27 12 -276 14 -1458 14 -784
0 -1425 -2 -1425 -5 0 -4 396 -501 496 -623 12 -14 42 -29 78 -38 131 -34 267
-124 349 -232 118 -153 160 -328 122 -507 -50 -234 -239 -431 -470 -490 -76
-19 -234 -19 -310 0 -234 59 -428 267 -470 500 -8 44 -14 93 -15 108 0 22
-111 163 -517 657 l-518 630 -380 0 c-352 0 -383 -2 -422 -19z"/>
<path d="M5345 3347 c-459 -236 -793 -473 -1080 -768 -281 -288 -446 -573
-517 -889 -19 -88 -23 -133 -23 -275 1 -194 15 -263 85 -413 135 -287 413
-486 785 -561 104 -21 363 -47 372 -37 4 3 -7 16 -23 28 -55 42 -176 163 -219
218 -84 110 -151 263 -181 418 -19 97 -18 295 2 407 45 265 198 582 400 831
103 128 168 153 259 99 49 -28 75 -75 75 -135 0 -52 -9 -68 -84 -155 -258
-295 -396 -660 -357 -939 49 -349 312 -590 819 -750 78 -24 95 -26 270 -25
149 0 183 3 168 12 -219 141 -328 232 -425 354 -102 131 -160 246 -203 408
-17 64 -22 109 -22 225 -1 162 15 263 48 313 71 104 214 103 269 -3 20 -37 19
-84 -3 -225 -25 -163 38 -355 168 -507 234 -276 646 -458 1223 -542 82 -12
198 -16 508 -16 444 0 447 0 495 62 33 44 41 86 27 131 -13 38 -81 107 -105
107 -29 0 -253 72 -372 120 -533 213 -937 538 -1122 905 -77 151 -97 288 -89
600 3 121 13 276 21 345 17 131 53 353 62 383 3 9 0 17 -7 17 -6 0 -234 81
-506 180 -272 99 -500 180 -506 180 -7 0 -102 -47 -212 -103z"/>
</g>
</svg>
