<?xml version="1.0" standalone="no"?>
<!DOCTYPE svg PUBLIC "-//W3C//DTD SVG 20010904//EN"
 "http://www.w3.org/TR/2001/REC-SVG-20010904/DTD/svg10.dtd">
<svg version="1.0" xmlns="http://www.w3.org/2000/svg"
 width="512.000000pt" height="512.000000pt" viewBox="0 0 512.000000 512.000000"
 preserveAspectRatio="xMidYMid meet">
<metadata>
Created by potrace 1.16, written by Peter Selinger 2001-2019
</metadata>
<g transform="translate(0.000000,512.000000) scale(0.100000,-0.100000)"
fill="#000000" stroke="none">
<path d="M2277 5020 c-319 -58 -593 -205 -832 -444 -237 -237 -385 -509 -456
-834 -30 -140 -38 -463 -15 -622 33 -230 101 -449 197 -641 60 -120 1314
-2209 1337 -2226 13 -11 -139 -13 -766 -13 l-782 0 0 -80 0 -80 1600 0 1600 0
0 80 0 80 -782 0 c-627 0 -779 2 -766 13 28 21 1287 2124 1349 2252 95 195
161 421 188 645 18 144 14 432 -9 563 -87 511 -418 950 -883 1172 -130 62
-202 87 -347 122 -90 21 -134 26 -315 29 -177 3 -227 0 -318 -16z m523 -165
c208 -34 447 -135 611 -259 l86 -65 20 -73 c18 -63 28 -106 48 -202 2 -10 -25
13 -61 52 -168 184 -392 316 -643 380 -97 25 -122 27 -301 27 -169 0 -207 -3
-285 -23 -252 -63 -443 -170 -620 -347 -177 -177 -284 -368 -347 -620 -20 -78
-23 -116 -23 -285 0 -169 3 -207 23 -285 77 -309 237 -555 481 -738 237 -178
495 -261 792 -255 l140 3 -27 -22 c-55 -43 -240 -148 -344 -194 -169 -75 -327
-124 -493 -153 l-77 -13 -83 136 c-348 570 -410 685 -476 887 -173 526 -109
1054 178 1461 71 101 219 253 319 328 151 113 368 212 549 250 165 35 357 38
533 10z m-70 -310 c235 -35 449 -144 620 -315 340 -340 425 -845 216 -1275
-340 -699 -1251 -850 -1801 -300 -250 250 -367 612 -310 960 57 352 277 655
594 819 213 110 443 148 681 111z"/>
<path d="M2025 4215 l-25 -24 0 -736 0 -735 80 0 80 0 0 360 0 360 455 0 456
0 24 25 c16 15 25 35 25 56 0 28 -18 51 -142 176 l-142 143 142 143 c124 125
142 148 142 176 0 21 -9 41 -25 56 l-24 25 -511 0 -511 0 -24 -25z m717 -238
c-90 -90 -102 -106 -102 -137 0 -31 12 -47 102 -137 l103 -103 -343 0 -342 0
0 240 0 240 342 0 343 0 -103 -103z"/>
</g>
</svg>
