<?xml version="1.0" standalone="no"?>
<!DOCTYPE svg PUBLIC "-//W3C//DTD SVG 20010904//EN"
 "http://www.w3.org/TR/2001/REC-SVG-20010904/DTD/svg10.dtd">
<svg version="1.0" xmlns="http://www.w3.org/2000/svg"
 width="512.000000pt" height="512.000000pt" viewBox="0 0 512.000000 512.000000"
 preserveAspectRatio="xMidYMid meet">
<metadata>
Created by potrace 1.16, written by Peter Selinger 2001-2019
</metadata>
<g transform="translate(0.000000,512.000000) scale(0.100000,-0.100000)"
fill="#000000" stroke="none">
<path d="M2289 5105 c-678 -110 -1225 -571 -1438 -1211 -65 -194 -82 -293 -88
-509 -4 -121 -1 -223 6 -280 87 -660 564 -1596 1346 -2640 188 -251 329 -425
363 -447 37 -24 127 -24 164 0 34 22 175 196 363 447 784 1047 1257 1977 1345
2642 18 135 8 440 -20 568 -137 644 -585 1151 -1196 1354 -207 69 -290 82
-539 87 -156 2 -245 -1 -306 -11z m501 -310 c633 -94 1141 -602 1246 -1245 22
-131 14 -406 -15 -540 -109 -498 -405 -1101 -906 -1845 -223 -331 -534 -755
-555 -755 -20 0 -354 454 -560 760 -501 747 -796 1350 -902 1846 -31 145 -33
460 -5 594 85 398 315 736 649 957 312 206 672 284 1048 228z"/>
<path d="M1573 4198 c-67 -48 -63 23 -63 -1030 0 -917 1 -954 19 -982 10 -15
32 -37 47 -47 28 -18 65 -19 984 -19 919 0 956 1 984 19 15 10 37 32 47 47 18
28 19 65 19 984 0 919 -1 956 -19 984 -10 15 -32 37 -47 47 -28 18 -65 19
-984 19 l-955 0 -32 -22z m537 -605 c0 -304 1 -330 19 -357 30 -46 70 -66 128
-66 45 0 72 10 178 62 l125 63 125 -63 c106 -52 133 -62 178 -62 58 0 98 20
128 66 18 27 19 53 19 357 l0 327 150 0 150 0 0 -750 0 -750 -750 0 -750 0 0
750 0 750 150 0 150 0 0 -327z m600 152 l0 -175 -50 25 c-33 17 -66 25 -100
25 -34 0 -67 -8 -100 -25 l-50 -25 0 175 0 175 150 0 150 0 0 -175z"/>
</g>
</svg>
