<svg id="svg" version="1.1" xmlns="http://www.w3.org/2000/svg" xmlns:xlink="http://www.w3.org/1999/xlink" width="400" height="400" viewBox="0, 0, 400,400"><g id="svgg"><path id="path0" d="M305.000 126.853 C 298.400 134.100,292.550 140.536,292.000 141.153 C 291.450 141.771,289.380 144.051,287.400 146.220 C 285.420 148.388,281.990 152.151,279.777 154.581 C 272.962 162.066,240.254 197.937,235.907 202.693 C 230.538 208.565,226.200 213.684,226.200 214.145 C 226.200 214.347,227.292 214.541,228.626 214.575 C 233.924 214.711,238.400 219.339,238.400 224.680 C 238.400 226.696,238.578 226.849,240.061 226.110 C 246.812 222.742,260.592 234.146,260.589 243.100 L 260.588 246.400 262.907 246.400 C 268.227 246.400,272.305 250.075,273.027 255.521 C 273.196 256.794,273.484 257.573,273.754 257.485 C 274.212 257.336,301.096 228.024,311.800 216.005 C 314.369 213.120,333.232 192.353,339.713 185.274 C 341.866 182.923,346.174 178.120,349.288 174.600 C 352.401 171.080,356.585 166.400,358.584 164.200 C 360.583 162.000,362.917 159.405,363.769 158.432 L 365.320 156.665 364.360 155.895 C 363.832 155.472,362.500 154.286,361.400 153.259 C 357.226 149.363,351.974 144.800,351.664 144.800 C 351.487 144.800,350.365 143.887,349.171 142.771 C 347.977 141.655,345.740 139.634,344.200 138.280 C 342.660 136.926,341.130 135.544,340.799 135.209 C 340.469 134.874,338.849 133.439,337.199 132.020 C 335.550 130.601,332.850 128.081,331.200 126.420 C 326.999 122.191,318.671 114.640,317.400 113.907 C 317.180 113.780,311.600 119.606,305.000 126.853 M185.801 117.599 C 185.394 118.258,186.073 120.174,187.247 121.677 C 188.666 123.494,188.670 123.407,187.139 124.171 C 185.358 125.059,184.600 124.957,184.052 123.753 L 183.575 122.707 182.835 123.559 C 181.068 125.597,180.894 134.452,182.571 137.012 C 184.692 140.249,187.287 140.802,200.331 140.794 C 216.017 140.784,217.996 139.984,218.890 133.290 C 219.590 128.053,217.988 122.138,216.401 124.098 C 215.885 124.736,215.543 124.808,214.421 124.517 C 212.697 124.071,211.896 122.930,212.904 122.357 C 214.366 121.524,215.453 117.200,214.200 117.200 C 213.870 117.200,213.600 117.488,213.600 117.840 C 213.600 118.864,211.008 121.200,209.871 121.200 C 208.602 121.200,206.567 119.521,206.236 118.201 C 205.956 117.085,205.297 116.881,204.944 117.801 C 204.514 118.923,205.228 120.464,207.113 122.480 L 208.994 124.490 206.897 124.345 C 205.119 124.222,204.800 124.305,204.800 124.892 C 204.800 126.358,196.958 126.456,196.210 125.000 C 195.879 124.355,195.471 124.224,194.100 124.323 C 192.008 124.474,191.994 124.244,193.958 122.096 C 195.639 120.257,196.232 118.744,195.668 117.735 C 195.364 117.193,195.202 117.257,194.556 118.169 C 192.614 120.913,192.524 120.982,190.865 120.982 C 189.096 120.982,187.200 119.633,187.200 118.373 C 187.200 117.608,186.153 117.029,185.801 117.599 M207.874 128.870 C 209.035 129.960,209.050 130.936,207.922 131.987 C 206.790 133.041,194.500 133.180,192.900 132.157 C 191.691 131.384,191.685 129.466,192.889 128.623 C 194.459 127.523,206.655 127.724,207.874 128.870 M183.067 184.667 C 182.920 184.813,182.800 189.673,182.800 195.467 L 182.800 206.000 199.800 206.000 L 216.800 206.000 216.800 195.200 L 216.800 184.400 200.067 184.400 C 190.863 184.400,183.213 184.520,183.067 184.667 M99.626 213.230 C 99.214 215.323,99.236 215.796,99.783 216.630 L 100.418 217.600 118.566 217.600 C 138.592 217.600,137.205 217.789,137.196 215.067 C 137.189 213.098,136.732 210.800,136.348 210.800 C 136.156 210.800,136.000 211.506,136.000 212.369 C 136.000 213.823,134.830 215.865,133.406 216.894 C 133.183 217.056,126.577 217.191,118.727 217.194 L 104.454 217.200 103.027 215.459 C 101.970 214.169,101.600 213.339,101.600 212.259 C 101.600 209.602,100.205 210.289,99.626 213.230 M114.000 211.400 C 114.000 211.767,114.194 212.002,114.430 211.923 C 114.666 211.845,114.860 211.609,114.860 211.400 C 114.860 211.191,114.666 210.956,114.430 210.877 C 114.194 210.798,114.000 211.033,114.000 211.400 M121.200 211.400 C 121.200 211.733,121.556 212.000,122.000 212.000 C 122.444 212.000,122.800 211.733,122.800 211.400 C 122.800 211.067,122.444 210.800,122.000 210.800 C 121.556 210.800,121.200 211.067,121.200 211.400 M267.670 266.126 C 267.191 266.635,266.800 267.447,266.800 267.931 L 266.800 268.811 280.495 268.705 C 295.581 268.589,295.786 268.550,293.446 266.209 L 292.436 265.200 280.488 265.200 L 268.539 265.200 267.670 266.126 M190.500 279.800 L 189.200 280.361 189.200 283.501 C 189.200 287.191,189.481 287.600,192.018 287.600 C 194.614 287.600,195.200 286.847,195.200 283.515 C 195.200 280.064,193.322 278.580,190.500 279.800 M204.470 280.526 C 203.074 282.011,203.380 286.239,204.960 287.294 C 205.982 287.977,209.158 287.625,209.611 286.779 C 210.365 285.370,209.955 284.190,208.738 284.270 C 207.591 284.346,207.016 283.334,207.643 282.344 C 209.131 279.995,206.425 278.444,204.470 280.526 M207.172 282.097 C 206.626 284.000,206.710 285.200,207.387 285.200 C 207.734 285.200,207.884 285.436,207.754 285.775 C 207.150 287.348,205.614 285.569,205.606 283.287 C 205.600 281.622,205.743 281.433,207.472 280.825 C 207.512 280.811,207.377 281.384,207.172 282.097 M193.125 283.387 C 193.278 285.808,192.378 286.866,191.128 285.735 C 189.620 284.371,190.422 281.030,192.195 281.285 C 192.858 281.380,193.022 281.752,193.125 283.387 M264.000 298.000 C 263.670 298.213,262.998 298.391,262.508 298.394 C 261.540 298.401,261.029 299.581,261.267 301.259 L 261.400 302.200 280.500 302.304 L 299.600 302.408 299.600 300.495 L 299.600 298.582 297.488 298.091 C 296.327 297.821,293.166 297.600,290.464 297.600 L 285.552 297.600 283.437 299.600 C 282.274 300.700,280.997 301.600,280.600 301.600 C 280.203 301.600,278.926 300.700,277.763 299.600 L 275.648 297.600 270.124 297.606 C 267.086 297.609,264.330 297.787,264.000 298.000 " stroke="none" fill="#3671af" fill-rule="evenodd"></path><path id="path1" d="M94.400 45.400 C 94.400 46.066,96.444 46.198,99.744 45.746 C 102.811 45.325,101.842 44.800,98.000 44.800 C 95.067 44.800,94.400 44.911,94.400 45.400 M295.600 45.148 C 295.600 45.614,298.040 45.990,301.100 45.996 C 303.058 45.999,303.600 45.870,303.600 45.400 C 303.600 44.907,302.889 44.800,299.600 44.800 C 297.400 44.800,295.600 44.956,295.600 45.148 M90.000 46.013 C 90.000 46.621,91.061 46.922,92.201 46.636 C 93.753 46.246,93.378 45.600,91.600 45.600 C 90.720 45.600,90.000 45.786,90.000 46.013 M304.400 45.957 C 304.400 46.419,305.408 46.800,306.633 46.800 C 307.226 46.800,307.600 46.568,307.600 46.200 C 307.600 45.767,307.156 45.600,306.000 45.600 C 305.120 45.600,304.400 45.761,304.400 45.957 M86.200 46.691 C 85.540 46.785,84.829 47.028,84.620 47.231 C 84.411 47.434,83.826 47.600,83.320 47.600 C 82.814 47.600,82.400 47.780,82.400 48.000 C 82.400 48.220,81.950 48.400,81.400 48.400 C 80.850 48.400,80.400 48.580,80.400 48.800 C 80.400 49.020,80.040 49.200,79.600 49.200 C 79.160 49.200,78.800 49.360,78.800 49.555 C 78.800 49.751,78.170 50.029,77.400 50.174 C 76.630 50.318,76.000 50.608,76.000 50.818 C 76.000 51.028,75.652 51.200,75.227 51.200 C 74.802 51.200,74.340 51.560,74.200 52.000 C 74.060 52.440,73.620 52.800,73.222 52.800 C 72.824 52.800,72.274 53.070,72.000 53.400 C 71.726 53.730,71.294 54.000,71.039 54.000 C 70.785 54.000,70.317 54.360,70.000 54.800 C 69.683 55.240,69.195 55.600,68.916 55.600 C 68.638 55.600,67.340 56.680,66.032 58.000 C 64.724 59.320,63.384 60.400,63.054 60.400 C 62.724 60.400,62.329 60.794,62.176 61.276 C 62.023 61.759,60.931 63.105,59.749 64.268 C 58.567 65.431,57.600 66.585,57.600 66.834 C 57.600 67.082,57.150 67.639,56.600 68.071 C 56.050 68.504,55.600 69.205,55.600 69.629 C 55.600 70.053,55.420 70.400,55.200 70.400 C 54.980 70.400,54.800 70.670,54.800 71.000 C 54.800 72.058,55.796 71.642,56.531 70.276 C 56.924 69.547,57.673 68.453,58.196 67.844 C 58.719 67.235,59.744 66.002,60.474 65.103 C 62.834 62.194,65.798 59.377,69.000 56.998 C 69.880 56.344,70.874 55.537,71.209 55.204 C 72.579 53.845,81.743 49.268,84.900 48.367 C 85.945 48.069,86.800 47.673,86.800 47.486 C 86.800 47.299,87.135 47.252,87.544 47.382 C 88.395 47.652,89.600 47.286,89.600 46.757 C 89.600 46.398,88.420 46.375,86.200 46.691 M308.400 46.719 C 308.400 47.247,309.846 47.742,310.396 47.402 C 310.618 47.265,310.800 47.343,310.800 47.576 C 310.800 47.809,311.162 48.000,311.605 48.000 C 312.048 48.000,312.723 48.159,313.105 48.353 C 313.487 48.548,314.250 48.883,314.800 49.099 C 317.036 49.976,322.209 52.567,322.333 52.873 C 322.407 53.053,322.677 53.205,322.933 53.211 C 323.190 53.217,324.107 53.757,324.971 54.411 C 325.835 55.065,326.682 55.600,326.853 55.600 C 327.024 55.600,327.581 56.005,328.091 56.500 C 329.935 58.289,332.512 60.400,332.852 60.400 C 333.043 60.400,333.200 60.587,333.200 60.815 C 333.200 61.043,334.021 62.078,335.025 63.115 C 337.228 65.391,341.200 70.572,341.200 71.170 C 341.200 71.407,341.470 71.600,341.800 71.600 C 342.130 71.600,342.400 71.330,342.400 71.000 C 342.400 70.670,342.220 70.400,342.000 70.400 C 341.780 70.400,341.600 70.106,341.600 69.746 C 341.600 69.386,341.150 68.675,340.600 68.165 C 340.050 67.655,339.600 67.046,339.600 66.810 C 339.600 66.575,338.633 65.431,337.451 64.268 C 336.269 63.105,335.177 61.759,335.024 61.276 C 334.871 60.794,334.476 60.400,334.146 60.400 C 333.816 60.400,332.476 59.320,331.168 58.000 C 329.860 56.680,328.595 55.600,328.356 55.600 C 328.117 55.600,327.440 55.085,326.852 54.456 C 326.265 53.827,325.383 53.185,324.892 53.029 C 324.401 52.873,324.000 52.578,324.000 52.373 C 324.000 52.168,323.730 52.000,323.400 52.000 C 323.070 52.000,322.800 51.820,322.800 51.600 C 322.800 51.380,322.440 51.200,322.000 51.200 C 321.560 51.200,321.200 51.040,321.200 50.845 C 321.200 50.649,320.570 50.371,319.800 50.226 C 319.030 50.082,318.400 49.792,318.400 49.582 C 318.400 49.372,318.040 49.200,317.600 49.200 C 317.160 49.200,316.800 49.020,316.800 48.800 C 316.800 48.580,316.350 48.400,315.800 48.400 C 315.250 48.400,314.800 48.220,314.800 48.000 C 314.800 47.780,314.386 47.600,313.880 47.600 C 313.374 47.600,312.782 47.422,312.564 47.204 C 311.974 46.614,308.400 46.197,308.400 46.719 M92.949 60.813 C 85.279 62.516,77.122 67.509,71.730 73.800 C 66.790 79.563,64.026 85.205,62.324 93.000 C 61.420 97.141,61.565 295.295,62.475 298.800 C 62.846 300.230,63.341 302.160,63.575 303.089 C 63.808 304.018,64.539 305.957,65.200 307.399 C 65.860 308.841,66.400 310.099,66.400 310.195 C 66.400 310.700,71.538 317.670,73.140 319.337 C 78.596 325.017,86.465 329.402,94.042 330.982 C 98.538 331.920,298.662 331.920,303.158 330.982 C 318.131 327.858,330.205 316.165,334.323 300.800 L 335.341 297.000 335.491 244.300 C 335.650 188.295,335.696 189.820,333.923 192.344 C 333.635 192.753,329.260 197.646,324.200 203.217 C 319.140 208.788,314.032 214.438,312.848 215.773 C 311.665 217.108,309.685 219.280,308.448 220.600 C 307.212 221.920,305.406 223.900,304.436 225.000 C 303.465 226.100,301.755 227.990,300.636 229.201 C 299.516 230.411,296.801 233.381,294.602 235.801 C 290.048 240.810,288.725 242.256,282.368 249.163 C 279.856 251.893,276.990 255.070,276.000 256.223 C 273.923 258.642,272.370 259.701,272.096 258.883 C 271.982 258.544,271.764 258.497,271.461 258.747 C 271.207 258.956,269.830 259.519,268.400 259.997 C 266.970 260.476,265.170 261.140,264.400 261.474 C 262.709 262.208,262.083 262.479,259.050 263.786 C 257.758 264.344,256.368 264.800,255.962 264.800 C 255.556 264.800,254.583 265.160,253.800 265.600 C 253.017 266.040,252.190 266.400,251.962 266.400 C 251.735 266.400,250.615 266.827,249.474 267.348 C 248.333 267.870,245.703 268.879,243.629 269.590 C 241.556 270.302,238.554 271.479,236.960 272.206 C 235.365 272.932,233.642 273.649,233.130 273.799 C 231.016 274.418,230.025 275.025,229.916 275.768 C 229.829 276.358,228.752 276.977,225.600 278.246 C 220.649 280.240,220.400 280.427,220.400 282.156 C 220.400 282.972,219.968 284.079,219.274 285.040 C 218.509 286.100,217.933 287.680,217.476 289.968 C 217.106 291.820,216.532 293.749,216.201 294.254 C 215.871 294.759,215.600 295.454,215.600 295.798 C 215.600 296.143,215.330 296.529,215.000 296.655 C 214.670 296.782,214.400 297.097,214.400 297.356 C 214.400 297.976,210.316 302.000,209.687 302.000 C 209.419 302.000,209.200 302.145,209.200 302.323 C 209.200 303.304,202.880 305.190,199.573 305.196 C 197.027 305.200,192.994 304.305,192.220 303.564 C 192.011 303.364,191.598 303.200,191.303 303.200 C 187.791 303.200,182.279 294.984,180.971 287.800 C 180.810 286.920,180.212 285.584,179.640 284.831 C 178.630 283.502,178.595 283.253,178.400 276.231 C 178.270 271.524,178.025 268.695,177.700 268.126 C 175.824 264.848,178.480 260.649,182.430 260.647 C 185.402 260.646,187.001 262.166,187.784 265.736 C 187.975 266.607,188.194 266.809,188.717 266.601 C 192.011 265.289,207.006 265.276,210.083 266.583 C 210.613 266.807,210.822 266.617,211.012 265.736 C 211.670 262.685,212.627 260.597,213.420 260.483 C 214.049 260.393,214.336 259.891,214.680 258.283 C 214.925 257.137,215.322 255.435,215.563 254.500 C 215.803 253.565,216.186 252.035,216.413 251.100 C 216.640 250.165,217.540 246.625,218.413 243.234 C 219.286 239.842,220.003 236.692,220.006 236.234 C 220.009 235.775,220.303 234.590,220.659 233.600 C 221.015 232.610,221.446 231.170,221.617 230.400 C 222.145 228.023,223.111 223.954,223.975 220.475 C 224.429 218.646,224.800 216.535,224.800 215.785 C 224.800 214.681,225.276 213.880,227.300 211.584 C 228.675 210.024,230.305 208.084,230.922 207.274 C 231.539 206.463,234.329 203.372,237.122 200.404 C 242.258 194.946,244.629 192.385,248.222 188.412 C 249.310 187.209,251.203 185.139,252.429 183.812 C 253.654 182.486,255.364 180.598,256.229 179.617 C 257.093 178.636,258.970 176.564,260.400 175.012 C 261.830 173.460,264.620 170.402,266.600 168.217 C 268.580 166.031,271.296 163.064,272.636 161.622 C 273.976 160.180,276.027 157.920,277.193 156.600 C 278.360 155.280,280.324 153.120,281.558 151.800 C 285.536 147.543,290.000 142.490,290.000 142.241 C 290.000 142.109,284.726 142.000,278.280 142.000 C 269.698 142.000,266.431 141.871,266.080 141.520 C 265.329 140.769,265.395 102.268,266.148 101.643 C 266.537 101.320,270.105 101.219,278.423 101.294 L 290.149 101.400 290.486 102.700 C 290.671 103.415,290.773 112.460,290.711 122.800 C 290.650 133.140,290.684 141.600,290.787 141.600 C 290.890 141.600,291.399 141.105,291.918 140.500 C 292.437 139.895,293.526 138.680,294.339 137.800 C 295.152 136.920,299.498 132.150,303.995 127.200 C 315.913 114.084,316.966 113.026,317.678 113.445 C 318.590 113.983,325.442 120.068,332.009 126.174 C 333.444 127.508,335.424 129.320,336.409 130.201 C 339.361 132.840,345.704 138.557,346.394 139.200 C 347.285 140.030,352.642 144.769,354.156 146.066 C 356.325 147.925,357.003 148.528,360.544 151.756 C 362.448 153.492,364.477 155.317,365.054 155.812 L 366.101 156.712 362.564 160.656 C 360.618 162.825,358.930 164.690,358.813 164.800 C 358.452 165.139,352.255 172.111,350.888 173.715 L 349.597 175.231 349.699 233.682 C 349.779 280.015,349.904 292.168,350.300 292.300 C 350.698 292.433,350.800 280.522,350.800 233.633 C 350.800 196.546,350.941 174.800,351.182 174.800 C 351.686 174.800,354.400 171.932,354.400 171.399 C 354.400 171.194,355.455 169.967,356.711 168.711 C 356.931 168.491,357.561 167.861,358.111 167.311 C 358.661 166.761,359.291 166.131,359.511 165.911 C 359.731 165.691,360.381 165.073,360.955 164.537 C 361.530 164.002,362.000 163.212,362.000 162.782 C 362.000 162.352,362.172 162.000,362.381 162.000 C 362.952 162.000,369.200 155.667,369.200 155.089 C 369.200 154.815,369.650 154.252,370.200 153.839 C 370.750 153.426,371.200 152.825,371.200 152.504 C 371.200 152.184,371.740 151.417,372.400 150.800 C 373.060 150.183,373.600 149.564,373.600 149.423 C 373.600 149.140,374.315 148.225,375.119 147.481 C 375.405 147.216,376.060 146.575,376.575 146.055 C 377.743 144.877,378.077 144.543,379.255 143.375 C 380.505 142.136,381.200 141.287,381.200 140.999 C 381.200 140.869,381.630 140.302,382.155 139.737 C 383.431 138.367,383.458 138.340,386.100 135.816 C 387.365 134.607,388.400 133.435,388.400 133.212 C 388.400 132.988,389.660 131.543,391.200 130.000 C 392.792 128.405,394.000 126.850,394.000 126.397 C 394.000 125.959,394.180 125.600,394.400 125.600 C 394.620 125.600,394.800 124.790,394.800 123.800 C 394.800 122.810,394.620 122.000,394.400 122.000 C 394.180 122.000,394.000 121.680,394.000 121.288 C 394.000 120.897,393.640 120.317,393.200 120.000 C 392.760 119.683,392.400 119.201,392.400 118.930 C 392.400 118.658,391.955 118.023,391.411 117.518 C 390.414 116.592,390.124 116.309,388.519 114.689 C 387.334 113.493,386.483 112.800,386.199 112.800 C 385.831 112.800,384.469 111.507,380.618 107.500 C 379.191 106.015,377.841 104.800,377.617 104.800 C 377.394 104.800,375.692 103.270,373.834 101.400 C 371.977 99.530,370.214 98.000,369.917 98.000 C 369.620 98.000,369.112 97.616,368.788 97.146 C 368.465 96.677,367.966 96.092,367.681 95.846 C 367.395 95.601,366.765 95.000,366.281 94.511 C 363.043 91.242,361.732 90.096,360.948 89.847 C 360.525 89.713,359.913 89.217,359.589 88.746 C 359.265 88.275,358.575 87.485,358.055 86.989 C 356.788 85.782,356.477 85.467,355.337 84.245 C 354.802 83.670,353.962 83.200,353.470 83.200 C 352.979 83.200,352.317 82.840,352.000 82.400 C 351.630 81.887,350.965 81.600,350.145 81.600 C 349.442 81.600,348.807 81.448,348.733 81.262 C 348.475 80.606,346.400 80.337,346.400 80.960 C 346.400 82.242,346.915 82.800,348.099 82.800 C 350.861 82.800,351.491 83.300,369.237 99.600 C 374.148 104.110,380.063 109.501,382.383 111.581 C 391.850 120.069,393.411 122.245,392.545 125.751 C 392.184 127.215,381.060 139.992,380.143 139.997 C 379.672 140.000,373.605 134.668,367.601 128.976 C 362.892 124.511,351.694 114.378,347.600 110.875 C 345.730 109.276,343.463 107.300,342.562 106.484 C 332.104 97.013,332.004 96.884,333.836 95.170 C 335.091 93.996,334.981 92.221,333.355 87.380 C 328.834 73.920,317.028 63.553,302.800 60.549 C 298.237 59.585,97.339 59.839,92.949 60.813 M53.746 72.149 C 53.497 72.434,53.168 73.237,53.015 73.933 C 52.862 74.630,52.571 75.200,52.368 75.200 C 52.166 75.200,52.000 75.560,52.000 76.000 C 52.000 76.440,51.820 76.800,51.600 76.800 C 51.380 76.800,51.200 77.070,51.200 77.400 C 51.200 77.730,51.020 78.000,50.800 78.000 C 50.580 78.000,50.400 78.450,50.400 79.000 C 50.400 80.476,51.361 80.216,51.953 78.580 C 52.235 77.798,53.082 76.071,53.833 74.741 C 55.311 72.127,55.254 70.427,53.746 72.149 M342.209 71.985 C 342.078 72.197,342.393 73.052,342.907 73.885 C 343.422 74.718,344.342 76.435,344.951 77.700 C 346.134 80.155,346.800 80.624,346.800 79.000 C 346.800 78.450,346.620 78.000,346.400 78.000 C 346.180 78.000,346.000 77.730,346.000 77.400 C 346.000 77.070,345.820 76.800,345.600 76.800 C 345.380 76.800,345.200 76.440,345.200 76.000 C 345.200 75.560,345.034 75.200,344.832 75.200 C 344.629 75.200,344.337 74.625,344.183 73.923 C 343.793 72.148,342.745 71.119,342.209 71.985 M50.000 81.200 C 50.000 81.640,50.161 82.000,50.357 82.000 C 50.807 82.000,51.226 80.960,50.906 80.639 C 50.424 80.158,50.000 80.420,50.000 81.200 M49.200 83.200 C 49.200 83.716,49.403 83.999,49.700 83.900 C 49.975 83.808,50.200 83.493,50.200 83.200 C 50.200 82.907,49.975 82.592,49.700 82.500 C 49.403 82.401,49.200 82.684,49.200 83.200 M48.400 85.600 C 48.400 86.436,48.570 86.810,48.900 86.700 C 49.175 86.608,49.400 86.113,49.400 85.600 C 49.400 85.087,49.175 84.592,48.900 84.500 C 48.570 84.390,48.400 84.764,48.400 85.600 M47.600 88.633 C 47.600 90.441,48.544 90.303,48.725 88.469 C 48.818 87.531,48.687 87.200,48.225 87.200 C 47.775 87.200,47.600 87.600,47.600 88.633 M46.924 91.300 C 46.510 91.939,46.293 287.064,46.697 294.768 C 46.909 298.802,47.150 300.585,47.500 300.701 C 47.998 300.866,48.272 296.405,47.794 295.927 C 47.546 295.679,47.503 95.281,47.750 94.879 C 47.924 94.598,48.116 92.228,48.041 91.300 C 48.018 91.025,47.831 90.800,47.624 90.800 C 47.417 90.800,47.102 91.025,46.924 91.300 M121.912 93.587 C 123.964 95.298,123.906 98.494,121.790 100.334 C 120.942 101.071,120.800 101.540,120.800 103.597 L 120.800 106.000 128.820 106.000 C 139.146 106.000,140.000 106.364,140.000 110.766 C 140.000 112.643,140.077 112.802,141.100 113.026 C 143.024 113.447,143.180 113.547,143.996 114.887 C 144.730 116.090,144.797 116.901,144.797 124.600 C 144.797 134.240,144.552 135.133,141.582 136.300 C 140.051 136.901,140.000 136.982,140.000 138.806 C 140.000 140.309,139.786 140.904,138.945 141.745 L 137.891 142.800 119.421 142.800 C 97.719 142.800,99.103 143.121,98.708 138.000 C 98.623 136.900,98.410 136.573,97.715 136.474 C 97.228 136.405,96.283 135.838,95.615 135.214 L 94.400 134.079 94.400 124.729 C 94.400 114.196,94.463 113.937,97.215 113.196 C 98.758 112.781,98.800 112.722,98.800 111.003 C 98.800 106.431,99.763 106.000,109.980 106.000 L 118.000 106.000 118.000 103.659 C 118.000 101.609,117.852 101.164,116.812 100.075 C 113.083 96.174,117.807 90.164,121.912 93.587 M199.084 96.000 C 198.904 96.688,199.072 96.800,200.280 96.800 C 201.380 96.800,201.634 96.666,201.450 96.185 C 201.043 95.127,202.377 95.024,203.322 96.041 C 204.006 96.776,204.189 97.433,204.150 99.019 C 204.088 101.585,206.340 103.200,209.982 103.200 C 214.429 103.200,218.075 105.134,218.574 107.758 C 218.662 108.221,218.962 109.928,219.241 111.551 C 219.714 114.307,219.833 114.538,221.035 115.040 L 222.322 115.578 222.594 119.689 C 223.021 126.122,222.823 127.687,221.500 128.319 C 220.496 128.798,220.398 129.042,220.374 131.122 C 220.315 136.141,218.108 139.738,214.263 141.080 C 211.628 142.000,189.244 142.171,186.765 141.290 C 182.623 139.820,180.955 137.472,180.590 132.600 C 180.317 128.956,180.279 128.847,179.150 128.379 C 176.729 127.376,177.145 115.200,179.600 115.200 C 180.697 115.200,181.090 114.405,181.379 111.600 C 182.015 105.442,183.728 103.777,190.000 103.219 C 194.460 102.822,196.963 101.387,196.335 99.587 C 195.750 97.906,197.226 95.223,198.747 95.206 C 199.097 95.202,199.218 95.487,199.084 96.000 M187.400 105.069 C 184.306 105.891,182.452 109.539,183.166 113.400 C 183.760 116.612,183.861 116.644,185.835 114.221 C 189.278 109.994,194.089 110.709,196.840 115.859 C 197.589 117.260,202.975 117.687,203.613 116.395 C 203.775 116.068,204.136 115.310,204.415 114.712 C 206.440 110.371,215.600 111.141,215.600 115.652 C 215.600 116.878,216.344 116.868,216.983 115.633 C 218.696 112.320,217.222 106.917,214.234 105.560 C 211.695 104.407,207.086 104.521,204.568 105.798 C 201.886 107.159,198.116 107.206,196.351 105.900 C 195.131 104.998,189.600 104.484,187.400 105.069 M188.829 115.854 C 187.800 117.162,187.800 117.395,188.827 118.838 C 190.350 120.976,193.200 119.994,193.200 117.330 C 193.200 114.870,190.358 113.910,188.829 115.854 M207.862 115.531 C 206.983 116.502,207.020 118.513,207.931 119.338 C 209.703 120.941,212.400 119.634,212.400 117.173 C 212.400 115.056,209.305 113.937,207.862 115.531 M108.365 115.713 C 105.534 117.887,107.107 122.800,110.634 122.800 C 112.245 122.800,114.400 120.546,114.400 118.862 C 114.400 116.282,110.366 114.177,108.365 115.713 M125.569 116.369 C 122.248 119.690,127.029 125.006,130.469 121.817 C 132.305 120.114,132.312 117.992,130.487 115.900 C 129.471 114.736,126.963 114.975,125.569 116.369 M112.572 131.328 C 112.050 132.689,112.571 135.000,113.400 135.000 C 114.520 135.000,114.613 131.091,113.499 130.876 C 113.113 130.802,112.696 131.005,112.572 131.328 M117.043 131.433 C 116.606 132.572,116.788 134.292,117.400 134.800 C 117.921 135.233,118.000 135.003,118.000 133.049 C 118.000 130.882,117.547 130.118,117.043 131.433 M120.683 131.900 C 120.264 134.026,121.135 136.189,121.757 134.567 C 122.258 133.263,121.898 130.800,121.207 130.800 C 121.038 130.800,120.802 131.295,120.683 131.900 M124.400 132.785 C 124.400 134.906,125.269 135.948,126.045 134.758 C 126.785 133.623,126.284 131.012,125.300 130.872 C 124.468 130.754,124.400 130.898,124.400 132.785 M109.280 131.680 C 108.613 132.347,108.679 134.202,109.390 134.792 C 110.172 135.440,111.016 133.714,110.643 132.229 C 110.359 131.095,110.006 130.954,109.280 131.680 M128.470 131.690 C 127.917 132.243,127.865 133.568,128.366 134.358 C 128.939 135.264,130.000 134.553,130.000 133.262 C 130.000 131.849,129.167 130.993,128.470 131.690 M138.120 179.735 C 138.636 180.521,138.779 183.531,139.025 198.707 L 139.317 216.744 138.089 217.972 L 136.862 219.200 118.685 219.200 C 100.901 219.200,100.485 219.182,99.454 218.371 L 98.400 217.542 98.400 199.060 C 98.400 182.980,98.481 180.462,99.023 179.689 L 99.645 178.800 118.577 178.800 L 137.508 178.800 138.120 179.735 M220.567 180.243 C 221.476 180.591,221.534 209.625,220.628 210.377 C 219.552 211.270,217.069 210.732,216.470 209.477 C 215.791 208.053,214.344 208.126,213.999 209.600 C 213.768 210.589,213.714 210.601,209.008 210.713 C 203.793 210.838,203.200 211.068,203.200 212.973 C 203.200 215.481,203.478 215.578,211.000 215.694 L 217.800 215.800 217.800 217.000 L 217.800 218.200 200.000 218.200 L 182.200 218.200 182.075 216.900 L 181.949 215.600 188.932 215.600 C 196.609 215.600,196.400 215.671,196.400 213.047 C 196.400 210.862,196.157 210.800,187.549 210.800 C 180.908 210.800,179.558 210.700,179.029 210.171 C 178.206 209.349,178.066 181.294,178.880 180.480 C 179.389 179.971,219.269 179.745,220.567 180.243 M111.641 182.614 C 110.171 184.288,110.067 185.264,111.300 185.805 C 111.987 186.106,112.247 186.626,112.400 188.000 C 112.692 190.624,114.108 190.626,114.400 188.003 C 114.563 186.535,114.801 186.110,115.700 185.681 C 117.131 184.998,117.085 184.515,115.418 182.700 C 113.713 180.843,113.207 180.831,111.641 182.614 M123.467 181.867 C 123.320 182.013,123.200 182.929,123.200 183.901 C 123.200 185.499,123.084 185.713,122.000 186.122 C 120.478 186.697,120.493 186.858,122.247 188.799 C 123.960 190.696,124.333 190.751,125.645 189.300 C 127.760 186.962,127.773 186.910,126.428 186.215 C 125.307 185.635,125.200 185.406,125.200 183.590 C 125.200 181.660,124.435 180.899,123.467 181.867 M104.938 193.271 C 103.720 193.860,103.650 194.658,103.883 205.195 C 104.058 213.116,104.190 214.679,104.722 215.100 C 105.510 215.724,131.629 215.827,132.781 215.210 C 133.441 214.857,133.538 213.932,133.802 205.479 C 134.128 195.044,134.013 193.917,132.562 193.255 C 131.245 192.655,106.181 192.670,104.938 193.271 M131.508 204.371 C 131.591 210.961,131.499 213.017,131.108 213.265 C 130.339 213.754,107.697 213.680,106.774 213.186 C 105.808 212.669,105.548 196.252,106.500 195.862 C 106.775 195.749,112.490 195.689,119.200 195.729 L 131.400 195.800 131.508 204.371 M111.000 197.600 C 110.840 197.858,110.890 198.250,111.110 198.470 C 111.376 198.736,111.606 198.713,111.800 198.400 C 111.960 198.142,111.910 197.750,111.690 197.530 C 111.424 197.264,111.194 197.287,111.000 197.600 M118.578 197.635 C 118.431 197.874,118.510 198.270,118.755 198.515 C 119.082 198.842,119.200 198.726,119.200 198.080 C 119.200 197.114,118.992 196.965,118.578 197.635 M125.691 198.165 C 125.858 199.039,125.686 199.342,124.748 199.827 C 123.404 200.522,123.213 202.292,124.188 205.000 C 124.505 205.880,124.773 207.635,124.782 208.900 C 124.800 211.166,124.817 211.200,125.957 211.200 C 127.332 211.200,127.595 210.671,127.614 207.867 C 127.622 206.730,127.886 205.350,128.200 204.800 C 129.266 202.935,128.978 200.513,127.606 199.803 C 126.777 199.374,126.441 198.926,126.506 198.337 C 126.558 197.870,126.350 197.400,126.043 197.292 C 125.629 197.146,125.539 197.369,125.691 198.165 M110.200 199.724 C 108.529 200.719,108.335 202.487,109.591 205.256 C 110.044 206.253,110.386 207.880,110.391 209.055 C 110.400 211.033,110.445 211.116,111.609 211.287 C 112.984 211.488,113.044 211.357,113.380 207.400 C 113.492 206.080,113.694 203.978,113.827 202.729 C 114.135 199.858,112.395 198.416,110.200 199.724 M117.257 199.943 C 116.404 200.599,116.338 200.875,116.568 202.834 C 116.708 204.025,116.952 206.343,117.111 207.985 C 117.398 210.953,117.408 210.972,118.700 211.235 L 120.000 211.499 120.002 209.049 C 120.004 207.702,120.246 206.138,120.541 205.573 C 121.963 202.848,121.789 200.487,120.109 199.700 C 118.715 199.047,118.385 199.076,117.257 199.943 M226.800 215.603 C 226.387 215.872,226.777 215.918,228.047 215.750 C 229.228 215.594,229.994 215.667,230.171 215.953 C 230.323 216.199,230.842 216.385,231.324 216.368 C 232.086 216.339,232.043 216.263,231.000 215.786 C 229.585 215.138,227.644 215.053,226.800 215.603 M234.153 218.288 C 234.514 218.997,235.180 219.775,235.634 220.018 C 236.754 220.618,236.134 219.423,234.586 218.000 L 233.498 217.000 234.153 218.288 M236.988 222.263 C 237.086 222.958,237.013 224.059,236.826 224.710 C 236.448 226.028,236.906 227.344,237.344 226.201 C 237.689 225.303,237.600 223.226,237.166 222.000 C 236.846 221.101,236.829 221.127,236.988 222.263 M239.800 227.200 C 238.937 227.640,237.954 228.003,237.615 228.007 C 237.006 228.014,236.236 229.354,230.609 240.200 C 229.125 243.060,227.301 246.414,226.555 247.652 C 225.810 248.891,225.200 249.999,225.200 250.114 C 225.200 250.229,224.554 251.465,223.764 252.862 C 217.009 264.804,217.121 263.833,222.000 268.161 C 226.177 271.866,225.171 271.972,232.029 267.099 C 235.203 264.844,238.939 262.189,240.331 261.199 C 241.723 260.210,245.686 257.330,249.137 254.800 C 252.588 252.270,256.195 249.660,257.153 249.000 C 261.808 245.791,260.787 239.474,254.593 233.159 C 249.239 227.701,243.417 225.356,239.800 227.200 M261.000 247.412 C 259.838 247.941,259.868 247.952,261.912 247.767 C 264.491 247.534,266.816 248.112,267.836 249.241 C 268.256 249.706,269.140 250.443,269.800 250.878 C 270.523 251.354,270.189 250.892,268.961 249.716 C 266.146 247.020,263.525 246.261,261.000 247.412 M122.097 252.700 C 123.995 254.695,123.746 258.051,121.616 259.191 C 120.857 259.598,120.777 259.938,120.882 262.324 L 121.000 265.000 129.645 265.108 C 139.701 265.233,139.645 265.211,139.999 269.099 C 140.128 270.528,140.414 271.416,140.800 271.594 C 144.884 273.477,144.788 273.192,144.788 283.400 C 144.788 292.913,144.714 293.215,142.000 294.798 C 140.325 295.775,140.192 295.975,140.080 297.688 C 139.996 298.958,139.662 299.848,138.999 300.564 L 138.038 301.600 119.519 301.587 C 105.592 301.578,100.843 301.454,100.365 301.087 C 99.339 300.299,98.800 298.965,98.800 297.212 C 98.800 295.653,98.712 295.534,97.028 294.812 C 94.434 293.700,94.400 293.549,94.400 283.208 L 94.400 273.964 95.382 272.982 C 95.922 272.442,96.696 272.000,97.102 272.000 C 98.259 272.000,98.800 271.178,98.801 269.420 C 98.802 268.511,99.151 267.229,99.596 266.500 L 100.388 265.200 108.561 265.200 C 113.057 265.200,117.019 265.091,117.367 264.957 C 118.399 264.561,118.263 259.769,117.204 259.202 C 116.766 258.968,116.136 258.251,115.804 257.608 C 113.700 253.539,118.978 249.422,122.097 252.700 M271.499 253.442 C 271.348 253.686,271.338 254.843,271.476 256.015 C 271.674 257.683,271.798 257.959,272.046 257.287 C 272.413 256.296,271.913 252.779,271.499 253.442 M286.248 262.356 C 287.542 262.772,289.140 263.401,289.800 263.755 C 290.460 264.108,291.745 264.580,292.656 264.802 C 294.006 265.132,294.443 265.484,295.018 266.704 C 295.406 267.527,296.146 268.757,296.662 269.438 C 297.178 270.119,297.600 270.990,297.600 271.375 C 297.600 271.760,297.945 272.165,298.367 272.276 C 298.789 272.386,299.351 272.999,299.616 273.638 C 299.880 274.277,300.264 274.800,300.469 274.800 C 301.192 274.800,302.088 277.743,301.892 279.478 C 301.711 281.091,300.765 282.604,298.412 285.042 C 297.683 285.798,297.600 286.402,297.600 290.956 L 297.600 296.027 299.010 296.859 C 301.121 298.105,302.073 301.367,300.720 302.720 C 299.894 303.546,260.561 303.398,260.243 302.567 C 259.294 300.095,260.498 297.116,262.600 296.735 C 263.783 296.521,264.064 285.401,262.896 285.030 C 259.834 284.059,258.171 278.032,260.234 275.384 C 260.912 274.513,261.581 273.485,261.721 273.100 C 261.861 272.715,262.341 272.400,262.787 272.400 C 263.397 272.400,263.600 272.139,263.600 271.353 C 263.600 270.760,264.120 269.713,264.800 268.939 C 265.460 268.187,266.000 267.365,266.000 267.112 C 266.000 266.320,267.700 264.800,268.585 264.800 C 269.050 264.800,270.144 264.426,271.015 263.969 C 275.686 261.521,281.676 260.887,286.248 262.356 M192.483 270.340 C 192.109 270.577,191.999 271.651,192.083 274.234 L 192.200 277.800 195.592 277.918 L 198.984 278.035 197.840 276.842 C 196.863 275.822,196.667 275.238,196.495 272.824 L 196.293 270.000 194.646 270.006 C 193.741 270.009,192.768 270.160,192.483 270.340 M202.615 270.500 C 202.527 270.775,202.384 272.153,202.297 273.562 C 202.159 275.821,202.002 276.234,200.970 277.060 L 199.800 277.996 202.867 277.998 C 207.295 278.001,207.200 278.083,207.200 274.237 C 207.200 272.222,207.015 270.775,206.720 270.480 C 206.077 269.837,202.822 269.853,202.615 270.500 M270.800 273.882 C 269.590 274.325,268.380 275.787,267.973 277.300 C 266.471 282.880,273.836 286.060,277.088 281.235 C 279.774 277.250,275.443 272.185,270.800 273.882 M284.753 275.153 C 283.396 276.510,283.200 276.940,283.200 278.559 C 283.200 284.303,291.718 285.504,293.208 279.969 C 294.576 274.891,288.485 271.421,284.753 275.153 M108.546 274.468 C 105.464 275.960,106.986 281.600,110.471 281.600 C 112.101 281.600,114.400 279.336,114.400 277.729 C 114.400 275.056,111.113 273.225,108.546 274.468 M125.631 275.036 C 122.368 277.781,126.079 283.032,129.848 281.002 C 131.324 280.207,132.233 278.190,131.783 276.706 C 130.941 273.930,127.920 273.109,125.631 275.036 M274.700 275.996 C 277.321 277.594,276.009 282.000,272.912 282.000 C 269.423 282.000,268.313 277.350,271.400 275.662 C 272.552 275.032,273.232 275.101,274.700 275.996 M289.971 275.785 C 292.865 277.282,291.763 282.000,288.520 282.000 C 285.017 282.000,283.721 277.449,286.755 275.800 C 288.095 275.072,288.587 275.069,289.971 275.785 M269.585 289.818 C 269.008 290.513,268.864 293.397,269.380 293.914 C 269.640 294.173,272.297 294.245,274.200 294.044 C 274.640 293.998,275.829 294.079,276.841 294.225 C 277.892 294.377,279.014 294.314,279.455 294.078 C 279.992 293.790,280.739 293.802,281.913 294.115 C 283.082 294.427,284.061 294.443,285.100 294.166 C 286.066 293.909,287.071 293.903,287.924 294.148 C 290.555 294.906,292.181 294.095,292.320 291.957 C 292.474 289.570,291.058 288.751,288.130 289.534 C 286.829 289.882,286.143 289.891,285.536 289.566 C 285.065 289.314,284.002 289.231,283.056 289.373 C 282.145 289.509,280.995 289.608,280.500 289.591 C 279.405 289.555,275.935 289.552,274.700 289.586 C 274.205 289.600,272.980 289.504,271.977 289.372 C 270.542 289.183,270.034 289.277,269.585 289.818 M112.572 290.128 C 112.050 291.489,112.571 293.800,113.400 293.800 C 114.520 293.800,114.613 289.891,113.499 289.676 C 113.113 289.602,112.696 289.805,112.572 290.128 M117.067 289.867 C 116.557 290.376,116.800 293.102,117.400 293.600 C 117.921 294.033,118.000 293.803,118.000 291.849 C 118.000 289.767,117.733 289.200,117.067 289.867 M120.686 290.684 C 120.423 292.017,120.754 294.000,121.239 294.000 C 122.112 294.000,122.218 289.999,121.353 289.715 C 121.107 289.635,120.807 290.071,120.686 290.684 M124.680 289.853 C 123.876 290.658,124.392 294.057,125.300 293.928 C 126.096 293.815,126.200 293.569,126.200 291.805 C 126.200 289.885,125.521 289.012,124.680 289.853 M109.300 290.265 C 108.606 290.545,108.672 292.996,109.390 293.592 C 110.172 294.240,111.016 292.514,110.643 291.029 C 110.383 289.992,110.214 289.896,109.300 290.265 M128.172 290.971 C 127.827 292.342,128.330 293.672,129.134 293.519 C 129.979 293.360,130.294 290.833,129.530 290.348 C 128.690 289.815,128.432 289.934,128.172 290.971 M349.443 296.233 C 349.046 297.268,349.167 300.800,349.600 300.800 C 349.826 300.800,350.000 299.667,350.000 298.200 C 350.000 295.550,349.875 295.107,349.443 296.233 M47.600 302.967 C 47.600 304.360,47.750 304.800,48.223 304.800 C 48.707 304.800,48.819 304.428,48.723 303.131 C 48.547 300.745,47.600 300.606,47.600 302.967 M348.880 301.680 C 348.167 302.393,348.259 304.800,349.000 304.800 C 349.444 304.800,349.600 304.333,349.600 303.000 C 349.600 301.025,349.577 300.983,348.880 301.680 M48.400 306.200 C 48.400 306.876,48.583 307.206,48.900 307.100 C 49.175 307.008,49.400 306.603,49.400 306.200 C 49.400 305.797,49.175 305.392,48.900 305.300 C 48.583 305.194,48.400 305.524,48.400 306.200 M347.752 305.781 C 347.629 306.100,347.646 306.550,347.788 306.781 C 348.254 307.535,348.800 307.221,348.800 306.200 C 348.800 305.116,348.113 304.841,347.752 305.781 M49.200 308.200 C 49.200 309.188,49.742 309.541,50.178 308.836 C 50.467 308.368,50.024 307.200,49.557 307.200 C 49.361 307.200,49.200 307.650,49.200 308.200 M347.041 307.836 C 346.769 308.545,347.049 309.200,347.624 309.200 C 347.831 309.200,348.000 308.750,348.000 308.200 C 348.000 307.081,347.416 306.859,347.041 307.836 M50.151 311.500 C 50.294 312.545,50.589 313.460,50.805 313.533 C 51.022 313.607,51.200 313.922,51.200 314.233 C 51.200 314.545,51.380 314.800,51.600 314.800 C 51.820 314.800,52.000 315.160,52.000 315.600 C 52.000 316.040,52.172 316.400,52.382 316.400 C 52.592 316.400,52.882 317.030,53.026 317.800 C 53.171 318.570,53.449 319.200,53.645 319.200 C 53.840 319.200,54.000 319.430,54.000 319.712 C 54.000 319.993,54.360 320.483,54.800 320.800 C 55.240 321.117,55.600 321.672,55.600 322.032 C 55.600 322.393,56.050 323.026,56.600 323.439 C 57.150 323.852,57.600 324.495,57.600 324.868 C 57.600 325.241,57.960 325.660,58.400 325.800 C 58.840 325.940,59.200 326.214,59.200 326.409 C 59.200 326.857,61.124 328.800,61.568 328.800 C 61.751 328.800,62.008 329.340,62.140 330.000 C 62.283 330.714,62.631 331.200,63.000 331.200 C 63.341 331.200,64.720 332.280,66.065 333.600 C 67.409 334.920,68.673 336.000,68.873 336.000 C 69.073 336.000,69.686 336.450,70.236 337.000 C 70.786 337.550,71.498 338.000,71.818 338.000 C 72.138 338.000,72.400 338.180,72.400 338.400 C 72.400 338.620,72.748 338.800,73.173 338.800 C 73.598 338.800,74.054 339.141,74.187 339.558 C 74.336 340.028,74.955 340.415,75.814 340.576 C 76.576 340.719,77.200 341.008,77.200 341.218 C 77.200 341.428,77.560 341.600,78.000 341.600 C 78.440 341.600,78.800 341.780,78.800 342.000 C 78.800 342.220,79.160 342.400,79.600 342.400 C 80.040 342.400,80.400 342.580,80.400 342.800 C 80.400 343.020,80.835 343.200,81.367 343.200 C 81.898 343.200,82.393 343.364,82.467 343.564 C 82.540 343.764,83.455 344.055,84.500 344.210 C 86.818 344.553,87.088 343.873,84.900 343.203 C 81.010 342.013,71.968 337.414,70.800 336.032 C 70.690 335.902,69.880 335.260,69.000 334.606 C 66.252 332.565,62.478 328.953,60.345 326.326 C 59.605 325.414,58.811 324.473,58.581 324.234 C 57.371 322.980,54.285 318.051,53.052 315.400 C 51.567 312.211,50.800 310.372,50.800 310.004 C 50.800 309.782,50.596 309.600,50.346 309.600 C 50.034 309.600,49.973 310.196,50.151 311.500 M346.024 311.100 C 343.438 318.320,336.607 327.955,330.780 332.600 C 326.614 335.921,325.776 336.598,325.598 336.786 C 325.246 337.157,322.309 338.777,319.300 340.260 C 316.279 341.748,315.701 342.400,317.400 342.400 C 317.950 342.400,318.400 342.220,318.400 342.000 C 318.400 341.780,318.670 341.600,319.000 341.600 C 319.330 341.600,319.600 341.436,319.600 341.235 C 319.600 341.034,320.312 340.750,321.183 340.603 C 322.244 340.424,322.847 340.082,323.010 339.568 C 323.144 339.145,323.602 338.800,324.027 338.800 C 324.452 338.800,324.800 338.632,324.800 338.427 C 324.800 338.222,325.205 337.926,325.700 337.770 C 326.195 337.613,326.891 337.151,327.247 336.743 C 327.603 336.334,328.015 336.000,328.164 336.000 C 328.524 336.000,329.268 335.371,331.595 333.100 C 332.665 332.055,333.812 331.200,334.144 331.200 C 334.475 331.200,334.860 330.840,335.000 330.400 C 335.140 329.960,335.422 329.600,335.627 329.600 C 335.832 329.600,336.000 329.412,336.000 329.182 C 336.000 328.952,336.450 328.314,337.000 327.764 C 337.550 327.214,338.000 326.604,338.000 326.409 C 338.000 326.214,338.360 325.940,338.800 325.800 C 339.240 325.660,339.600 325.264,339.600 324.919 C 339.600 324.574,340.050 323.875,340.600 323.365 C 341.150 322.855,341.600 322.199,341.600 321.907 C 341.600 321.615,341.960 321.117,342.400 320.800 C 342.840 320.483,343.200 319.993,343.200 319.712 C 343.200 319.430,343.360 319.200,343.555 319.200 C 343.751 319.200,344.029 318.570,344.174 317.800 C 344.318 317.030,344.608 316.400,344.818 316.400 C 345.028 316.400,345.200 316.040,345.200 315.600 C 345.200 315.160,345.380 314.800,345.600 314.800 C 345.820 314.800,346.000 314.545,346.000 314.233 C 346.000 313.922,346.178 313.607,346.395 313.533 C 346.912 313.358,347.428 309.600,346.935 309.600 C 346.729 309.600,346.319 310.275,346.024 311.100 M313.697 342.817 C 312.980 343.241,312.305 343.590,312.197 343.594 C 312.088 343.597,311.730 343.600,311.400 343.600 C 311.070 343.600,310.800 343.800,310.800 344.045 C 310.800 344.584,314.527 344.128,314.733 343.564 C 314.807 343.364,315.227 343.200,315.667 343.200 C 316.129 343.200,316.396 342.989,316.300 342.700 C 316.044 341.930,315.128 341.971,313.697 342.817 M86.667 344.267 C 86.048 344.885,86.499 345.200,88.000 345.200 C 89.736 345.200,90.149 344.640,88.700 344.252 C 87.523 343.937,86.993 343.940,86.667 344.267 M308.684 344.250 C 308.089 344.844,308.445 345.200,309.633 345.200 C 310.441 345.200,310.810 345.027,310.702 344.700 C 310.515 344.133,309.113 343.820,308.684 344.250 M90.286 345.048 C 89.645 345.688,90.087 346.000,91.633 346.000 C 92.761 346.000,93.216 345.845,93.103 345.500 C 92.921 344.947,90.737 344.596,90.286 345.048 M304.900 345.065 C 303.857 345.486,304.463 346.000,306.000 346.000 C 307.156 346.000,307.600 345.833,307.600 345.400 C 307.600 344.808,306.023 344.612,304.900 345.065 M94.400 346.200 C 94.400 346.689,95.067 346.800,98.000 346.800 C 101.842 346.800,102.811 346.275,99.744 345.854 C 96.444 345.402,94.400 345.534,94.400 346.200 M298.100 345.865 C 296.793 346.392,297.883 346.800,300.600 346.800 C 303.000 346.800,303.600 346.680,303.600 346.200 C 303.600 345.604,299.384 345.347,298.100 345.865 " stroke="none" fill="#ebebea" fill-rule="evenodd"></path><path id="path2" d="M101.510 45.270 C 101.405 45.585,100.043 45.750,97.377 45.770 C 94.636 45.791,93.225 45.967,92.835 46.336 C 92.510 46.645,91.755 46.796,91.050 46.693 C 90.311 46.584,89.604 46.739,89.257 47.086 C 88.913 47.430,88.310 47.564,87.742 47.421 C 87.224 47.291,86.800 47.329,86.800 47.505 C 86.800 47.681,85.945 48.069,84.900 48.367 C 81.743 49.268,72.579 53.845,71.209 55.204 C 70.874 55.537,69.880 56.344,69.000 56.998 C 65.798 59.377,62.834 62.194,60.474 65.103 C 59.744 66.002,58.719 67.235,58.196 67.844 C 57.673 68.453,56.924 69.547,56.531 70.276 C 56.139 71.004,55.578 71.600,55.285 71.600 C 54.992 71.600,54.853 71.763,54.976 71.962 C 55.099 72.161,54.585 73.411,53.833 74.741 C 53.082 76.071,52.235 77.798,51.953 78.580 C 51.670 79.361,51.183 80.000,50.871 80.000 C 50.430 80.000,50.406 80.125,50.765 80.558 C 51.121 80.987,51.087 81.256,50.615 81.728 C 50.278 82.065,50.110 82.622,50.243 82.967 C 50.385 83.337,50.227 83.691,49.859 83.833 C 49.409 84.005,49.299 84.397,49.466 85.230 C 49.627 86.034,49.521 86.455,49.120 86.609 C 48.727 86.760,48.602 87.230,48.726 88.081 C 48.856 88.961,48.704 89.481,48.215 89.839 C 47.794 90.146,47.644 90.547,47.833 90.854 C 48.156 91.376,48.108 94.301,47.769 94.851 C 47.485 95.310,47.547 295.396,47.831 296.137 C 47.966 296.487,48.014 297.768,47.938 298.983 C 47.839 300.570,47.952 301.251,48.340 301.399 C 48.714 301.542,48.836 302.156,48.738 303.397 C 48.638 304.649,48.760 305.253,49.143 305.399 C 49.444 305.515,49.608 305.928,49.506 306.317 C 49.404 306.705,49.571 307.258,49.877 307.543 C 50.191 307.836,50.327 308.399,50.190 308.832 C 50.053 309.262,50.134 309.600,50.373 309.600 C 50.608 309.600,50.800 309.782,50.800 310.004 C 50.800 310.372,51.567 312.211,53.052 315.400 C 54.285 318.051,57.371 322.980,58.581 324.234 C 58.811 324.473,59.605 325.414,60.345 326.326 C 62.478 328.953,66.252 332.565,69.000 334.606 C 69.880 335.260,70.690 335.902,70.800 336.032 C 71.968 337.414,81.010 342.013,84.900 343.203 C 85.725 343.456,86.401 343.783,86.401 343.931 C 86.402 344.079,87.067 344.215,87.879 344.233 C 88.691 344.252,89.421 344.463,89.501 344.704 C 89.591 344.973,90.201 345.052,91.084 344.909 C 92.070 344.749,92.658 344.852,92.960 345.238 C 93.282 345.649,94.465 345.808,97.377 345.830 C 100.043 345.850,101.405 346.015,101.510 346.330 C 101.787 347.162,297.064 346.993,297.897 346.160 C 298.397 345.660,299.169 345.551,301.413 345.665 C 303.490 345.770,304.431 345.657,304.802 345.260 C 305.140 344.898,305.834 344.780,306.831 344.913 C 307.950 345.063,308.407 344.959,308.578 344.513 C 308.729 344.120,309.153 343.974,309.791 344.096 C 310.331 344.199,310.823 344.135,310.886 343.953 C 310.949 343.772,311.360 343.564,311.800 343.491 C 312.240 343.418,313.266 343.037,314.080 342.644 C 314.894 342.250,315.749 342.045,315.980 342.188 C 316.211 342.330,316.400 342.277,316.400 342.068 C 316.400 341.859,317.705 341.046,319.300 340.260 C 322.309 338.777,325.246 337.157,325.598 336.786 C 325.776 336.598,326.614 335.921,330.780 332.600 C 336.607 327.955,343.438 318.320,346.024 311.100 C 346.319 310.275,346.717 309.600,346.907 309.600 C 347.098 309.600,347.144 309.254,347.010 308.832 C 346.873 308.399,347.009 307.836,347.323 307.543 C 347.629 307.258,347.796 306.705,347.694 306.317 C 347.592 305.928,347.763 305.512,348.073 305.393 C 348.456 305.246,348.585 304.731,348.474 303.783 C 348.384 303.016,348.530 302.126,348.797 301.804 C 349.485 300.975,349.474 301.985,349.527 235.528 L 349.576 175.255 350.877 173.728 C 352.254 172.111,358.451 165.140,358.813 164.800 C 358.930 164.690,360.618 162.825,362.564 160.656 L 366.101 156.712 365.054 155.812 C 364.477 155.317,362.448 153.492,360.544 151.756 C 357.003 148.528,356.325 147.925,354.156 146.066 C 352.642 144.769,347.285 140.030,346.394 139.200 C 345.704 138.557,339.361 132.840,336.409 130.201 C 335.424 129.320,333.444 127.508,332.009 126.174 C 325.442 120.068,318.590 113.983,317.678 113.445 C 316.966 113.026,315.913 114.084,303.995 127.200 C 299.498 132.150,295.152 136.920,294.339 137.800 C 293.526 138.680,292.437 139.895,291.918 140.500 C 291.399 141.105,290.890 141.600,290.787 141.600 C 290.684 141.600,290.650 133.140,290.711 122.800 C 290.773 112.460,290.671 103.415,290.486 102.700 L 290.149 101.400 278.423 101.294 C 270.105 101.219,266.537 101.320,266.148 101.643 C 265.395 102.268,265.329 140.769,266.080 141.520 C 266.431 141.871,269.698 142.000,278.280 142.000 C 284.726 142.000,290.000 142.109,290.000 142.241 C 290.000 142.490,285.536 147.543,281.558 151.800 C 280.324 153.120,278.360 155.280,277.193 156.600 C 276.027 157.920,273.976 160.180,272.636 161.622 C 271.296 163.064,268.580 166.031,266.600 168.217 C 264.620 170.402,261.830 173.460,260.400 175.012 C 258.970 176.564,257.093 178.636,256.229 179.617 C 255.364 180.598,253.654 182.486,252.429 183.812 C 251.203 185.139,249.310 187.209,248.222 188.412 C 244.629 192.385,242.258 194.946,237.122 200.404 C 234.329 203.372,231.539 206.463,230.922 207.274 C 230.305 208.084,228.675 210.024,227.300 211.584 C 225.123 214.054,223.871 216.622,225.263 215.761 C 229.653 213.048,237.344 218.465,237.383 224.300 C 237.392 225.674,237.535 226.799,237.700 226.800 C 237.865 226.800,238.000 227.085,238.000 227.433 C 238.000 227.782,238.135 227.997,238.300 227.912 C 241.192 226.423,241.820 226.295,244.000 226.743 C 253.132 228.621,262.172 240.014,259.440 246.200 C 259.099 246.971,259.113 246.974,259.843 246.285 C 261.079 245.117,260.882 240.406,259.485 237.716 C 255.530 230.100,244.805 223.743,239.975 226.152 C 239.261 226.509,238.615 226.800,238.539 226.800 C 238.462 226.800,238.400 225.966,238.400 224.946 C 238.400 219.258,234.120 214.769,228.586 214.654 C 227.164 214.624,226.000 214.456,226.000 214.279 C 226.000 213.880,230.485 208.637,235.907 202.698 C 241.476 196.598,274.770 160.081,279.777 154.581 C 281.990 152.151,285.420 148.381,287.400 146.203 C 289.380 144.026,291.916 141.244,293.035 140.022 C 294.155 138.800,299.806 132.580,305.595 126.200 C 311.383 119.820,316.339 114.360,316.608 114.066 C 317.239 113.377,323.555 118.724,331.200 126.420 C 332.850 128.081,335.550 130.601,337.199 132.020 C 338.849 133.439,340.469 134.874,340.799 135.209 C 341.130 135.544,342.660 136.926,344.200 138.280 C 345.740 139.634,347.977 141.655,349.171 142.771 C 350.365 143.887,351.487 144.800,351.664 144.800 C 351.974 144.800,357.226 149.363,361.400 153.259 C 362.500 154.286,363.832 155.472,364.360 155.895 L 365.320 156.665 363.769 158.432 C 362.917 159.405,360.583 162.000,358.584 164.200 C 356.585 166.400,352.401 171.080,349.288 174.600 C 346.174 178.120,341.866 182.924,339.713 185.275 C 337.561 187.627,331.763 194.017,326.830 199.475 C 321.896 204.934,316.766 210.574,315.430 212.009 C 314.093 213.445,310.733 217.135,307.962 220.209 C 287.309 243.130,273.637 258.000,273.216 258.000 C 273.050 258.000,272.914 257.037,272.914 255.859 C 272.914 249.782,264.695 243.872,260.576 246.987 C 259.632 247.702,260.106 247.758,261.827 247.136 C 266.160 245.569,272.018 250.863,272.140 256.457 C 272.213 259.801,272.503 259.867,275.061 257.115 C 276.128 255.969,278.178 253.764,279.618 252.215 C 281.058 250.667,284.028 247.420,286.218 245.000 C 288.408 242.580,290.290 240.510,290.400 240.400 C 290.510 240.290,292.400 238.220,294.600 235.801 C 296.800 233.381,299.516 230.411,300.636 229.201 C 301.755 227.990,303.465 226.100,304.436 225.000 C 305.406 223.900,307.212 221.920,308.448 220.600 C 309.685 219.280,311.665 217.108,312.848 215.773 C 314.032 214.438,319.140 208.788,324.200 203.217 C 329.260 197.646,333.635 192.753,333.923 192.344 C 335.696 189.820,335.650 188.295,335.491 244.300 L 335.341 297.000 334.323 300.800 C 330.205 316.165,318.131 327.858,303.158 330.982 C 298.662 331.920,98.538 331.920,94.042 330.982 C 86.465 329.402,78.596 325.017,73.140 319.337 C 71.538 317.670,66.400 310.700,66.400 310.195 C 66.400 310.099,65.860 308.841,65.200 307.399 C 64.539 305.957,63.808 304.018,63.575 303.089 C 63.341 302.160,62.846 300.230,62.475 298.800 C 61.850 296.394,61.800 288.708,61.800 195.800 C 61.800 89.261,61.716 94.224,63.630 88.099 C 67.826 74.670,79.770 63.670,93.294 60.780 C 98.090 59.755,297.995 59.535,302.800 60.549 C 318.625 63.890,331.387 76.402,334.530 91.658 L 335.000 93.940 339.606 88.870 C 342.140 86.082,344.763 83.556,345.435 83.259 C 346.566 82.758,347.321 80.005,346.329 80.001 C 346.181 80.001,345.560 78.965,344.951 77.700 C 344.342 76.435,343.422 74.718,342.907 73.885 C 342.393 73.052,342.078 72.197,342.209 71.985 C 342.340 71.773,342.167 71.600,341.824 71.600 C 341.481 71.600,341.200 71.407,341.200 71.170 C 341.200 70.572,337.228 65.391,335.025 63.115 C 334.021 62.078,333.200 61.043,333.200 60.815 C 333.200 60.587,333.043 60.400,332.852 60.400 C 332.512 60.400,329.935 58.289,328.091 56.500 C 327.581 56.005,327.024 55.600,326.853 55.600 C 326.682 55.600,325.835 55.065,324.971 54.411 C 324.107 53.757,323.190 53.217,322.933 53.211 C 322.677 53.205,322.407 53.053,322.333 52.873 C 322.209 52.567,317.036 49.976,314.800 49.099 C 314.250 48.883,313.487 48.548,313.105 48.353 C 312.723 48.159,312.048 48.000,311.605 48.000 C 311.162 48.000,310.800 47.837,310.800 47.637 C 310.800 47.438,310.461 47.363,310.048 47.472 C 309.634 47.580,309.050 47.406,308.751 47.085 C 308.391 46.700,307.721 46.567,306.775 46.694 C 305.879 46.814,305.129 46.683,304.772 46.343 C 304.367 45.959,302.980 45.796,300.029 45.787 C 297.117 45.778,295.809 45.627,295.696 45.287 C 295.463 44.590,101.742 44.573,101.510 45.270 M116.701 93.812 C 114.715 95.653,114.755 97.923,116.812 100.075 C 117.852 101.164,118.000 101.609,118.000 103.659 L 118.000 106.000 109.980 106.000 C 99.756 106.000,98.800 106.429,98.800 111.019 C 98.800 112.164,98.621 112.809,98.300 112.825 C 98.025 112.839,98.205 113.013,98.700 113.212 L 99.600 113.574 99.600 124.371 C 99.600 133.007,99.490 135.271,99.051 135.681 C 98.695 136.013,98.563 136.759,98.676 137.797 C 99.262 143.201,97.597 142.800,119.421 142.800 L 137.891 142.800 138.945 141.745 C 139.791 140.900,140.000 140.311,140.000 138.779 C 140.000 137.607,140.193 136.802,140.499 136.700 C 140.806 136.598,140.653 136.349,140.099 136.053 C 139.200 135.572,139.200 135.566,139.200 124.573 L 139.200 113.574 140.100 113.212 C 140.595 113.013,140.775 112.839,140.500 112.825 C 140.169 112.809,140.000 112.115,140.000 110.774 C 140.000 106.363,139.150 106.000,128.820 106.000 L 120.800 106.000 120.800 103.597 C 120.800 101.540,120.942 101.071,121.790 100.334 C 124.888 97.640,123.362 92.846,119.396 92.813 C 118.222 92.804,117.499 93.071,116.701 93.812 M120.946 95.229 C 122.165 96.188,122.254 96.840,121.354 98.214 C 120.087 100.148,116.800 99.084,116.800 96.740 C 116.800 96.009,118.587 94.400,119.400 94.400 C 119.671 94.400,120.366 94.773,120.946 95.229 M194.947 101.870 C 193.713 102.713,192.711 102.988,190.000 103.226 C 183.703 103.778,182.022 105.403,181.406 111.538 C 181.248 113.114,180.945 114.510,180.733 114.641 C 180.505 114.782,180.582 115.149,180.923 115.540 C 181.239 115.903,181.815 117.190,182.203 118.400 C 184.388 125.210,184.587 125.443,187.139 124.171 C 188.670 123.407,188.666 123.494,187.247 121.677 C 186.073 120.174,185.394 118.258,185.801 117.599 C 186.153 117.029,187.200 117.608,187.200 118.373 C 187.200 119.633,189.096 120.982,190.865 120.982 C 192.524 120.982,192.614 120.913,194.556 118.169 C 195.202 117.257,195.364 117.193,195.668 117.735 C 196.232 118.744,195.639 120.257,193.958 122.096 C 192.053 124.179,192.035 124.400,193.767 124.400 C 195.414 124.400,196.400 124.062,196.400 123.499 C 196.400 122.978,199.068 118.929,199.648 118.570 C 199.883 118.425,200.471 118.517,200.953 118.775 C 201.813 119.235,201.994 119.481,203.200 121.831 C 204.149 123.680,205.219 124.372,207.155 124.387 L 208.909 124.400 207.071 122.435 C 205.224 120.460,204.516 118.917,204.944 117.801 C 205.297 116.881,205.956 117.085,206.236 118.201 C 206.567 119.521,208.602 121.200,209.871 121.200 C 211.008 121.200,213.600 118.864,213.600 117.840 C 213.600 117.488,213.870 117.200,214.200 117.200 C 215.453 117.200,214.366 121.524,212.904 122.357 C 211.903 122.927,212.693 124.069,214.392 124.510 C 216.217 124.983,216.631 124.453,217.770 120.190 C 218.457 117.614,219.004 116.383,219.742 115.749 C 220.435 115.152,220.599 114.808,220.253 114.676 C 219.973 114.568,219.516 113.157,219.239 111.540 C 218.961 109.923,218.662 108.221,218.574 107.758 C 218.075 105.132,214.429 103.200,209.972 103.200 C 208.389 103.200,207.388 102.909,205.749 101.971 C 204.211 101.091,203.600 100.902,203.600 101.306 C 203.600 101.617,204.050 102.077,204.600 102.327 C 206.914 103.382,203.701 106.011,200.129 105.987 C 196.969 105.965,193.597 103.238,195.729 102.427 C 196.866 101.995,197.380 101.358,196.854 101.033 C 196.656 100.911,195.798 101.288,194.947 101.870 M289.367 101.843 C 290.333 102.213,290.333 140.987,289.367 141.357 C 288.092 141.846,266.988 141.628,266.480 141.120 C 265.849 140.489,265.786 103.548,266.414 102.374 C 266.830 101.597,287.481 101.119,289.367 101.843 M196.351 105.900 C 198.116 107.206,201.886 107.159,204.568 105.798 C 207.086 104.521,211.695 104.407,214.234 105.560 C 217.222 106.917,218.696 112.320,216.983 115.633 C 216.344 116.868,215.600 116.878,215.600 115.652 C 215.600 111.141,206.440 110.371,204.415 114.712 C 204.136 115.310,203.775 116.068,203.613 116.395 C 202.975 117.687,197.589 117.260,196.840 115.859 C 194.089 110.709,189.278 109.994,185.835 114.221 C 183.861 116.644,183.760 116.612,183.166 113.400 C 182.452 109.539,184.306 105.891,187.400 105.069 C 189.600 104.484,195.131 104.998,196.351 105.900 M277.276 111.500 C 277.350 111.885,277.766 112.200,278.200 112.200 C 278.634 112.200,279.050 111.885,279.124 111.500 C 279.225 110.976,278.993 110.800,278.200 110.800 C 277.407 110.800,277.175 110.976,277.276 111.500 M114.259 114.627 L 116.000 116.054 116.000 118.813 C 116.000 125.056,107.708 127.050,105.049 121.447 C 102.343 115.744,109.318 110.578,114.259 114.627 M130.800 113.800 C 131.074 114.130,131.528 114.400,131.809 114.400 C 132.091 114.400,132.697 115.038,133.157 115.817 C 136.594 121.642,129.313 127.496,124.167 123.045 C 121.758 120.961,121.776 116.615,124.203 114.563 C 126.027 113.020,129.791 112.584,130.800 113.800 M107.229 115.891 C 105.546 117.933,105.540 120.063,107.211 121.959 C 110.121 125.261,114.795 123.437,114.797 119.000 C 114.799 114.510,109.995 112.536,107.229 115.891 M125.277 115.319 C 121.867 118.947,124.981 124.701,129.678 123.453 C 130.901 123.128,132.803 120.363,132.787 118.936 C 132.744 115.304,127.613 112.832,125.277 115.319 M192.469 115.462 C 194.090 116.929,192.938 120.000,190.765 120.000 C 189.709 120.000,188.000 118.326,188.000 117.292 C 188.000 115.412,191.038 114.167,192.469 115.462 M211.669 115.462 C 213.287 116.927,212.096 120.000,209.909 120.000 C 208.290 120.000,207.200 118.982,207.200 117.470 C 207.200 115.115,209.930 113.889,211.669 115.462 M113.153 116.476 C 114.775 118.136,114.777 119.543,113.159 121.386 C 110.246 124.703,105.177 120.994,107.265 117.074 C 108.491 114.772,111.216 114.495,113.153 116.476 M130.487 115.900 C 132.312 117.992,132.305 120.114,130.469 121.817 C 127.029 125.006,122.248 119.690,125.569 116.369 C 126.963 114.975,129.471 114.736,130.487 115.900 M222.483 123.469 L 222.400 127.538 221.000 128.000 C 219.655 128.444,219.600 128.538,219.600 130.411 C 219.600 139.914,217.311 141.200,200.397 141.200 C 183.429 141.200,181.659 140.352,181.206 132.000 C 181.006 128.314,180.970 128.196,180.000 128.066 C 178.430 127.856,178.215 127.392,177.969 123.682 L 177.738 120.200 177.669 123.671 C 177.597 127.299,177.888 128.057,179.556 128.586 C 180.191 128.788,180.350 129.401,180.588 132.582 C 180.955 137.473,182.618 139.818,186.765 141.290 C 189.244 142.171,211.628 142.000,214.263 141.080 C 218.117 139.735,220.316 136.141,220.374 131.090 C 220.397 128.999,220.496 128.744,221.410 128.396 C 222.768 127.880,222.853 127.535,222.699 123.170 L 222.566 119.400 222.483 123.469 M121.251 122.700 C 123.414 126.191,122.882 127.600,119.400 127.600 C 116.770 127.600,115.905 126.927,116.384 125.255 C 117.598 121.022,119.569 119.987,121.251 122.700 M111.796 133.365 C 111.869 135.034,111.765 136.400,111.564 136.400 C 111.364 136.400,111.200 134.930,111.200 133.133 C 111.200 129.086,111.616 129.248,111.796 133.365 M127.600 131.424 C 127.600 132.004,127.427 132.340,127.200 132.200 C 126.980 132.064,126.800 131.603,126.800 131.176 C 126.800 130.749,126.980 130.400,127.200 130.400 C 127.420 130.400,127.600 130.861,127.600 131.424 M192.891 130.736 C 192.499 130.984,192.560 131.221,193.151 131.756 C 193.985 132.511,194.654 132.039,194.248 130.981 C 193.997 130.328,193.636 130.262,192.891 130.736 M196.859 130.747 C 196.005 131.301,197.019 132.882,198.127 132.724 C 199.311 132.556,199.374 130.648,198.200 130.498 C 197.760 130.441,197.156 130.554,196.859 130.747 M201.672 130.914 C 201.044 131.670,201.985 132.939,203.026 132.738 C 204.142 132.523,204.091 130.642,202.965 130.481 C 202.506 130.415,201.924 130.610,201.672 130.914 M206.900 130.665 C 206.204 130.946,206.273 131.600,207.000 131.600 C 207.330 131.600,207.600 131.330,207.600 131.000 C 207.600 130.670,207.555 130.414,207.500 130.432 C 207.445 130.449,207.175 130.554,206.900 130.665 M114.200 133.005 C 114.200 134.733,114.093 135.000,113.400 135.000 C 112.571 135.000,112.050 132.689,112.572 131.328 C 113.128 129.880,114.200 130.985,114.200 133.005 M118.000 133.049 C 118.000 135.003,117.921 135.233,117.400 134.800 C 116.788 134.292,116.606 132.572,117.043 131.433 C 117.547 130.118,118.000 130.882,118.000 133.049 M121.757 131.433 C 122.259 132.741,121.898 135.200,121.204 135.200 C 120.751 135.200,120.432 133.177,120.683 131.900 C 120.925 130.674,121.389 130.472,121.757 131.433 M126.304 132.600 C 126.426 134.471,125.942 135.417,125.040 135.071 C 123.899 134.633,124.142 130.708,125.300 130.872 C 126.040 130.977,126.219 131.284,126.304 132.600 M110.643 132.229 C 111.016 133.714,110.172 135.440,109.390 134.792 C 108.679 134.202,108.613 132.347,109.280 131.680 C 110.006 130.954,110.359 131.095,110.643 132.229 M130.000 133.262 C 130.000 134.553,128.939 135.264,128.366 134.358 C 127.865 133.568,127.917 132.243,128.470 131.690 C 129.167 130.993,130.000 131.849,130.000 133.262 M127.600 135.000 C 127.600 135.770,127.420 136.400,127.200 136.400 C 126.756 136.400,126.645 134.288,127.067 133.867 C 127.527 133.406,127.600 133.561,127.600 135.000 M99.023 179.689 C 98.481 180.462,98.400 182.980,98.400 199.060 L 98.400 217.542 99.454 218.371 C 100.485 219.182,100.901 219.200,118.685 219.200 L 136.862 219.200 138.089 217.972 L 139.317 216.744 139.025 198.707 C 138.779 183.531,138.636 180.521,138.120 179.735 L 137.508 178.800 118.577 178.800 L 99.645 178.800 99.023 179.689 M178.880 180.480 C 178.066 181.294,178.206 209.349,179.029 210.171 C 179.558 210.700,180.908 210.800,187.549 210.800 C 196.157 210.800,196.400 210.862,196.400 213.047 C 196.400 215.671,196.609 215.600,188.932 215.600 L 181.949 215.600 182.075 216.900 L 182.200 218.200 200.000 218.200 L 217.800 218.200 217.800 217.000 L 217.800 215.800 211.000 215.694 C 203.478 215.578,203.200 215.481,203.200 212.973 C 203.200 211.068,203.793 210.838,209.008 210.713 C 213.714 210.601,213.768 210.589,213.999 209.600 C 214.344 208.126,215.791 208.053,216.470 209.477 C 217.069 210.732,219.552 211.270,220.628 210.377 C 221.534 209.625,221.476 180.591,220.567 180.243 C 219.269 179.745,179.389 179.971,178.880 180.480 M115.418 182.700 C 117.085 184.515,117.131 184.998,115.700 185.681 C 114.801 186.110,114.563 186.535,114.400 188.003 C 114.108 190.626,112.692 190.624,112.400 188.000 C 112.247 186.626,111.987 186.106,111.300 185.805 C 110.067 185.264,110.171 184.288,111.641 182.614 C 113.207 180.831,113.713 180.843,115.418 182.700 M125.200 183.590 C 125.200 185.406,125.307 185.635,126.428 186.215 C 127.773 186.910,127.760 186.962,125.645 189.300 C 124.333 190.751,123.960 190.696,122.247 188.799 C 120.493 186.858,120.478 186.697,122.000 186.122 C 123.084 185.713,123.200 185.499,123.200 183.901 C 123.200 181.943,123.389 181.600,124.467 181.600 C 125.079 181.600,125.200 181.927,125.200 183.590 M216.800 195.200 L 216.800 206.000 199.800 206.000 L 182.800 206.000 182.800 195.467 C 182.800 189.673,182.920 184.813,183.067 184.667 C 183.213 184.520,190.863 184.400,200.067 184.400 L 216.800 184.400 216.800 195.200 M132.562 193.255 C 134.013 193.917,134.128 195.044,133.802 205.479 C 133.538 213.932,133.441 214.857,132.781 215.210 C 131.629 215.827,105.510 215.724,104.722 215.100 C 104.190 214.679,104.058 213.116,103.883 205.195 C 103.650 194.658,103.720 193.860,104.938 193.271 C 106.181 192.670,131.245 192.655,132.562 193.255 M106.500 195.862 C 105.548 196.252,105.808 212.669,106.774 213.186 C 107.697 213.680,130.339 213.754,131.108 213.265 C 131.499 213.017,131.591 210.961,131.508 204.371 L 131.400 195.800 119.200 195.729 C 112.490 195.689,106.775 195.749,106.500 195.862 M111.800 198.400 C 111.606 198.713,111.376 198.736,111.110 198.470 C 110.890 198.250,110.840 197.858,111.000 197.600 C 111.194 197.287,111.424 197.264,111.690 197.530 C 111.910 197.750,111.960 198.142,111.800 198.400 M119.200 198.080 C 119.200 198.726,119.082 198.842,118.755 198.515 C 118.510 198.270,118.431 197.874,118.578 197.635 C 118.992 196.965,119.200 197.114,119.200 198.080 M126.506 198.337 C 126.441 198.926,126.777 199.374,127.606 199.803 C 128.978 200.513,129.266 202.935,128.200 204.800 C 127.886 205.350,127.622 206.730,127.614 207.867 C 127.595 210.671,127.332 211.200,125.957 211.200 C 124.817 211.200,124.800 211.166,124.782 208.900 C 124.773 207.635,124.505 205.880,124.188 205.000 C 123.213 202.292,123.404 200.522,124.748 199.827 C 125.686 199.342,125.858 199.039,125.691 198.165 C 125.539 197.369,125.629 197.146,126.043 197.292 C 126.350 197.400,126.558 197.870,126.506 198.337 M112.855 199.829 C 114.045 200.444,114.066 200.505,113.827 202.729 C 113.694 203.978,113.492 206.080,113.380 207.400 C 113.044 211.357,112.984 211.488,111.609 211.287 C 110.445 211.116,110.400 211.033,110.391 209.055 C 110.386 207.880,110.044 206.253,109.591 205.256 C 108.335 202.487,108.529 200.719,110.200 199.724 C 111.265 199.089,111.438 199.096,112.855 199.829 M120.109 199.700 C 121.789 200.487,121.963 202.848,120.541 205.573 C 120.246 206.138,120.004 207.702,120.002 209.049 L 120.000 211.499 118.700 211.235 C 117.408 210.972,117.398 210.953,117.111 207.985 C 116.952 206.343,116.708 204.025,116.568 202.834 C 116.215 199.830,117.658 198.553,120.109 199.700 M101.600 212.259 C 101.600 213.339,101.970 214.169,103.027 215.459 L 104.454 217.200 118.727 217.194 C 126.577 217.191,133.183 217.056,133.406 216.894 C 134.830 215.865,136.000 213.823,136.000 212.369 C 136.000 211.506,136.156 210.800,136.348 210.800 C 136.732 210.800,137.189 213.098,137.196 215.067 C 137.205 217.789,138.592 217.600,118.566 217.600 L 100.418 217.600 99.783 216.630 C 98.885 215.259,99.702 210.800,100.852 210.800 C 101.446 210.800,101.600 211.101,101.600 212.259 M114.860 211.400 C 114.860 211.609,114.666 211.845,114.430 211.923 C 114.194 212.002,114.000 211.767,114.000 211.400 C 114.000 211.033,114.194 210.798,114.430 210.877 C 114.666 210.956,114.860 211.191,114.860 211.400 M122.800 211.400 C 122.800 211.733,122.444 212.000,122.000 212.000 C 121.556 212.000,121.200 211.733,121.200 211.400 C 121.200 211.067,121.556 210.800,122.000 210.800 C 122.444 210.800,122.800 211.067,122.800 211.400 M116.441 253.014 C 114.674 255.027,115.047 258.048,117.204 259.202 C 118.263 259.769,118.399 264.561,117.367 264.957 C 117.019 265.091,113.057 265.200,108.561 265.200 L 100.388 265.200 99.596 266.500 C 99.139 267.248,98.802 268.512,98.801 269.476 C 98.801 270.398,98.607 271.272,98.371 271.418 C 98.102 271.584,98.252 271.901,98.771 272.264 C 99.574 272.827,99.600 273.174,99.600 283.400 C 99.600 293.626,99.574 293.973,98.771 294.536 C 98.252 294.899,98.102 295.216,98.371 295.382 C 98.607 295.528,98.800 296.368,98.800 297.250 C 98.800 298.968,99.345 300.304,100.365 301.087 C 100.843 301.454,105.592 301.578,119.519 301.587 L 138.038 301.600 139.019 300.542 C 139.733 299.771,140.000 299.031,140.000 297.822 C 140.000 296.908,140.199 295.961,140.443 295.717 C 140.767 295.393,140.659 295.153,140.043 294.823 C 138.734 294.123,138.722 273.180,140.029 272.264 C 140.548 271.901,140.698 271.584,140.429 271.418 C 140.193 271.272,140.000 270.288,140.000 269.230 C 140.000 267.896,139.748 266.988,139.177 266.262 L 138.354 265.215 129.677 265.108 L 121.000 265.000 120.882 262.324 C 120.777 259.938,120.857 259.598,121.616 259.191 C 122.085 258.941,122.736 258.095,123.063 257.311 C 124.877 252.969,119.529 249.498,116.441 253.014 M121.269 254.262 C 122.169 255.077,122.190 255.738,121.354 257.014 C 120.087 258.948,116.800 257.884,116.800 255.540 C 116.800 253.773,119.785 252.920,121.269 254.262 M181.017 260.680 C 177.930 261.511,176.172 265.457,177.700 268.126 C 178.025 268.695,178.270 271.524,178.400 276.231 C 178.595 283.273,178.628 283.499,179.649 284.838 C 180.226 285.594,180.822 286.944,180.973 287.838 C 181.321 289.902,182.364 292.861,182.368 291.800 C 182.377 289.732,181.232 285.989,180.161 284.585 C 179.000 283.064,179.000 283.064,178.800 275.832 C 178.670 271.124,178.425 268.295,178.100 267.726 C 176.436 264.819,178.820 261.200,182.400 261.200 C 185.262 261.200,187.200 263.151,187.200 266.032 C 187.200 267.297,187.210 267.302,188.700 266.964 C 190.678 266.514,208.231 266.504,209.900 266.951 C 211.029 267.254,211.199 267.202,211.194 266.550 C 211.189 265.978,211.106 265.929,210.845 266.341 C 210.562 266.788,210.335 266.792,209.551 266.367 C 207.553 265.284,191.561 265.462,188.717 266.600 C 188.193 266.809,187.975 266.607,187.784 265.736 C 186.930 261.844,184.218 259.817,181.017 260.680 M212.382 261.234 C 212.136 261.693,212.040 262.173,212.168 262.301 C 212.295 262.429,212.400 262.336,212.400 262.095 C 212.400 261.854,212.683 261.374,213.029 261.029 C 213.374 260.683,213.471 260.400,213.243 260.400 C 213.015 260.400,212.627 260.775,212.382 261.234 M211.400 264.000 C 211.248 264.691,211.207 265.341,211.309 265.442 C 211.411 265.544,211.609 265.053,211.750 264.350 C 211.891 263.647,211.931 262.998,211.841 262.908 C 211.750 262.817,211.552 263.309,211.400 264.000 M268.800 264.690 C 267.663 264.895,266.000 266.290,266.000 267.039 C 266.000 267.314,265.533 268.093,264.963 268.771 L 263.926 270.004 263.764 283.039 C 263.594 296.674,263.582 296.800,262.446 296.800 C 260.638 296.800,259.337 300.206,260.243 302.567 C 260.561 303.398,299.894 303.546,300.720 302.720 C 302.081 301.359,301.120 298.104,298.987 296.845 L 297.553 295.999 297.517 290.300 C 297.470 283.032,297.489 272.886,297.551 271.637 C 297.577 271.107,297.177 270.117,296.661 269.437 C 296.145 268.757,295.406 267.527,295.018 266.704 C 294.241 265.057,291.570 263.870,290.669 264.771 C 290.364 265.076,290.556 265.200,291.338 265.200 C 292.638 265.200,294.515 266.905,294.322 267.909 C 294.200 268.545,293.100 268.608,280.495 268.705 L 266.800 268.811 266.800 267.875 C 266.800 266.720,268.349 265.200,269.526 265.200 C 270.007 265.200,270.400 265.020,270.400 264.800 C 270.400 264.580,270.265 264.425,270.100 264.454 C 269.935 264.484,269.350 264.590,268.800 264.690 M191.123 269.788 C 183.681 271.838,181.469 284.276,187.528 290.000 C 190.796 293.086,190.976 293.398,191.200 296.360 L 191.400 299.000 193.572 300.100 C 197.677 302.180,205.504 301.385,207.386 298.698 C 207.755 298.171,208.000 296.955,208.000 295.647 C 208.000 293.516,208.050 293.423,210.448 291.036 C 213.987 287.514,215.845 282.800,213.694 282.800 C 212.507 282.800,212.000 283.638,212.000 285.600 C 212.000 288.488,212.401 288.400,199.310 288.400 L 187.580 288.400 187.190 287.374 C 186.550 285.691,186.705 280.314,187.423 279.289 C 188.038 278.411,188.167 278.400,197.999 278.400 C 203.936 278.400,208.049 278.245,208.190 278.015 C 208.860 276.932,209.890 270.809,209.457 270.484 C 207.981 269.374,203.588 268.851,202.883 269.700 C 202.559 270.091,202.857 270.169,204.243 270.059 C 206.876 269.850,207.200 270.308,207.200 274.241 C 207.200 278.302,207.815 278.034,198.800 277.899 L 192.200 277.800 192.083 274.234 C 191.951 270.192,192.061 270.016,194.724 270.006 C 195.769 270.002,196.350 269.843,196.200 269.600 C 195.868 269.063,193.428 269.154,191.123 269.788 M114.400 273.588 C 117.309 275.866,116.478 281.216,112.966 282.816 C 106.544 285.741,101.480 278.071,106.652 273.252 C 108.364 271.657,112.143 271.820,114.400 273.588 M131.760 273.073 C 136.382 276.495,133.696 283.386,127.737 283.397 C 122.635 283.406,120.448 276.086,124.658 273.090 C 126.426 271.832,130.072 271.824,131.760 273.073 M107.360 274.560 C 105.372 276.548,105.411 278.878,107.467 280.933 C 110.566 284.033,114.800 282.186,114.800 277.735 C 114.800 273.395,110.402 271.518,107.360 274.560 M125.404 274.162 C 121.882 277.425,124.318 282.731,129.200 282.430 C 130.580 282.345,132.800 279.302,132.800 277.495 C 132.800 273.996,127.944 271.807,125.404 274.162 M275.188 274.112 C 276.579 274.815,278.000 277.084,278.000 278.600 C 278.000 284.130,269.725 285.426,267.989 280.167 C 266.598 275.952,271.190 272.089,275.188 274.112 M291.241 274.515 C 292.982 275.686,293.772 277.876,293.208 279.969 C 291.718 285.504,283.200 284.303,283.200 278.559 C 283.200 274.527,287.812 272.207,291.241 274.515 M113.223 275.289 C 114.830 277.049,114.776 278.504,113.040 280.240 C 109.902 283.378,105.378 279.958,107.246 275.860 C 108.250 273.654,111.450 273.349,113.223 275.289 M130.684 274.900 C 132.535 276.922,132.145 279.765,129.848 281.002 C 126.079 283.032,122.368 277.781,125.631 275.036 C 127.239 273.682,129.514 273.621,130.684 274.900 M228.856 276.434 C 228.336 276.855,228.077 277.200,228.279 277.200 C 228.815 277.200,230.234 276.100,229.999 275.867 C 229.890 275.758,229.375 276.013,228.856 276.434 M223.000 278.860 C 220.755 279.734,220.000 280.504,220.000 281.918 C 220.000 282.449,219.474 283.664,218.830 284.617 C 218.049 285.775,217.462 287.405,217.061 289.527 C 213.780 306.926,192.133 310.222,183.535 294.632 C 182.352 292.487,181.939 292.731,183.049 294.920 C 184.727 298.229,189.682 303.200,191.303 303.200 C 191.598 303.200,192.011 303.364,192.220 303.564 C 192.994 304.305,197.027 305.200,199.573 305.196 C 202.880 305.190,209.200 303.304,209.200 302.323 C 209.200 302.145,209.431 302.000,209.714 302.000 C 210.339 302.000,214.400 297.953,214.400 297.330 C 214.400 297.086,214.670 296.782,215.000 296.655 C 215.330 296.529,215.600 296.143,215.600 295.798 C 215.600 295.454,215.871 294.759,216.201 294.254 C 216.532 293.749,217.106 291.820,217.476 289.968 C 217.933 287.680,218.509 286.100,219.274 285.040 C 219.924 284.140,220.403 282.956,220.406 282.240 C 220.415 280.488,220.719 280.169,223.305 279.201 C 224.567 278.729,225.600 278.265,225.600 278.171 C 225.600 277.904,225.151 278.023,223.000 278.860 M121.365 281.709 C 123.463 284.803,122.880 286.400,119.653 286.400 C 115.795 286.400,115.122 284.475,117.768 281.006 C 119.040 279.339,119.868 279.501,121.365 281.709 M206.500 281.212 C 205.578 281.583,205.185 284.375,205.906 285.429 C 206.419 286.178,207.521 286.384,207.754 285.775 C 207.884 285.436,207.734 285.200,207.387 285.200 C 206.710 285.200,206.626 284.000,207.172 282.097 C 207.377 281.384,207.512 280.811,207.472 280.825 C 207.432 280.839,206.995 281.013,206.500 281.212 M190.895 281.665 C 189.456 283.104,190.996 287.022,192.553 285.884 C 193.610 285.111,193.324 281.446,192.195 281.285 C 191.753 281.221,191.168 281.392,190.895 281.665 M111.783 291.978 C 111.844 293.540,111.738 294.915,111.547 295.033 C 111.356 295.151,111.200 293.767,111.200 291.957 C 111.200 287.984,111.627 287.999,111.783 291.978 M127.600 290.224 C 127.600 290.804,127.427 291.140,127.200 291.000 C 126.980 290.864,126.800 290.403,126.800 289.976 C 126.800 289.549,126.980 289.200,127.200 289.200 C 127.420 289.200,127.600 289.661,127.600 290.224 M274.700 289.586 C 275.935 289.552,279.405 289.555,280.500 289.591 C 280.995 289.608,282.145 289.509,283.056 289.373 C 284.002 289.231,285.065 289.314,285.536 289.566 C 286.143 289.891,286.829 289.882,288.130 289.534 C 291.058 288.751,292.474 289.570,292.320 291.957 C 292.181 294.095,290.555 294.906,287.924 294.148 C 287.071 293.903,286.066 293.909,285.100 294.166 C 284.061 294.443,283.082 294.427,281.913 294.115 C 280.739 293.802,279.992 293.790,279.455 294.078 C 279.014 294.314,277.892 294.377,276.841 294.225 C 275.829 294.079,274.640 293.998,274.200 294.044 C 269.815 294.507,269.114 294.238,269.057 292.067 C 268.997 289.766,269.743 289.078,271.977 289.372 C 272.980 289.504,274.205 289.600,274.700 289.586 M114.200 291.805 C 114.200 293.533,114.093 293.800,113.400 293.800 C 112.571 293.800,112.050 291.489,112.572 290.128 C 113.128 288.680,114.200 289.785,114.200 291.805 M118.000 291.849 C 118.000 293.803,117.921 294.033,117.400 293.600 C 116.800 293.102,116.557 290.376,117.067 289.867 C 117.733 289.200,118.000 289.767,118.000 291.849 M121.931 290.979 C 122.091 292.340,121.711 294.000,121.239 294.000 C 120.754 294.000,120.423 292.017,120.686 290.684 C 120.961 289.293,121.755 289.481,121.931 290.979 M126.200 291.805 C 126.200 293.569,126.096 293.815,125.300 293.928 C 124.392 294.057,123.876 290.658,124.680 289.853 C 125.521 289.012,126.200 289.885,126.200 291.805 M110.643 291.029 C 111.016 292.514,110.172 294.240,109.390 293.592 C 108.672 292.996,108.606 290.545,109.300 290.265 C 110.214 289.896,110.383 289.992,110.643 291.029 M129.530 290.348 C 130.294 290.833,129.979 293.360,129.134 293.519 C 128.330 293.672,127.827 292.342,128.172 290.971 C 128.432 289.934,128.690 289.815,129.530 290.348 M205.250 292.949 C 206.262 295.170,205.356 295.600,199.666 295.600 C 194.306 295.600,193.600 295.390,193.600 293.800 C 193.600 291.671,204.311 290.889,205.250 292.949 M127.600 293.800 C 127.600 294.570,127.420 295.200,127.200 295.200 C 126.756 295.200,126.645 293.088,127.067 292.667 C 127.527 292.206,127.600 292.361,127.600 293.800 M277.763 299.600 C 278.926 300.700,280.203 301.600,280.600 301.600 C 280.997 301.600,282.274 300.700,283.437 299.600 L 285.552 297.600 290.464 297.600 C 293.166 297.600,296.327 297.821,297.488 298.091 L 299.600 298.582 299.600 300.495 L 299.600 302.408 280.500 302.304 L 261.400 302.200 261.267 301.259 C 261.029 299.581,261.540 298.401,262.508 298.394 C 262.998 298.391,263.670 298.213,264.000 298.000 C 264.330 297.787,267.086 297.609,270.124 297.606 L 275.648 297.600 277.763 299.600 " stroke="none" fill="#9cb7df" fill-rule="evenodd"></path><path id="path3" d="M345.225 83.306 C 343.890 83.983,332.838 96.043,332.817 96.846 C 332.802 97.426,337.947 102.284,347.597 110.802 C 353.168 115.719,363.959 125.522,367.601 128.976 C 373.605 134.668,379.672 140.000,380.143 139.997 C 381.060 139.992,392.184 127.215,392.545 125.751 C 393.411 122.245,391.850 120.069,382.383 111.581 C 380.063 109.501,374.148 104.110,369.237 99.600 C 354.751 86.295,352.684 84.488,350.956 83.623 C 349.111 82.699,346.687 82.565,345.225 83.306 M197.756 95.506 C 196.617 96.259,195.944 98.418,196.408 99.824 L 196.862 101.200 200.241 101.200 C 204.531 101.200,205.895 98.800,203.231 95.941 C 202.361 95.007,201.066 95.184,201.450 96.185 C 201.634 96.666,201.380 96.800,200.280 96.800 C 199.072 96.800,198.904 96.688,199.084 96.000 C 199.299 95.178,198.629 94.929,197.756 95.506 M95.544 113.964 C 94.577 114.747,93.859 129.561,94.597 133.519 C 94.839 134.813,96.666 136.395,97.924 136.399 C 98.871 136.401,98.042 135.708,96.802 135.460 C 94.985 135.097,94.800 134.075,94.800 124.428 C 94.800 114.780,95.027 113.863,97.509 113.486 L 98.600 113.320 97.544 113.260 C 96.964 113.227,96.064 113.544,95.544 113.964 M141.492 113.463 C 143.787 113.953,144.000 114.907,144.000 124.680 C 144.000 134.533,143.923 134.899,141.703 135.633 C 140.876 135.907,140.413 136.202,140.673 136.290 C 141.498 136.567,143.564 135.231,144.193 134.013 C 145.307 131.858,145.063 116.511,143.887 114.759 C 143.221 113.768,142.653 113.383,141.787 113.337 C 140.993 113.294,140.896 113.336,141.492 113.463 M178.480 115.680 C 178.193 115.967,178.019 117.216,178.046 118.780 C 178.072 120.221,178.172 121.103,178.268 120.741 C 178.364 120.379,178.793 119.990,179.221 119.878 C 180.047 119.663,180.395 117.200,179.600 117.200 C 179.380 117.200,179.200 116.930,179.200 116.600 C 179.200 116.223,179.580 116.000,180.224 116.000 C 180.804 116.000,181.140 115.827,181.000 115.600 C 180.658 115.047,179.062 115.098,178.480 115.680 M219.814 115.577 C 219.656 115.832,219.959 116.000,220.576 116.000 C 221.695 116.000,221.998 116.962,221.000 117.345 C 220.643 117.482,220.400 118.083,220.400 118.830 C 220.400 119.811,220.539 120.032,221.033 119.843 C 221.381 119.709,221.840 119.600,222.054 119.600 C 223.109 119.600,222.220 115.402,221.138 115.277 C 220.554 115.209,219.958 115.344,219.814 115.577 M199.873 119.060 C 199.185 119.748,199.601 121.600,200.443 121.600 C 201.163 121.600,201.247 121.438,201.015 120.500 C 200.700 119.223,200.262 118.671,199.873 119.060 M270.613 123.179 C 270.125 123.969,270.845 124.400,272.653 124.400 C 274.157 124.400,274.436 124.283,274.326 123.700 C 274.173 122.896,271.058 122.459,270.613 123.179 M225.326 215.695 C 225.116 215.973,224.630 217.640,224.246 219.400 C 223.861 221.160,223.401 223.050,223.225 223.600 C 223.048 224.150,222.587 226.040,222.200 227.800 C 221.813 229.560,221.160 232.002,220.748 233.227 C 220.337 234.451,220.000 235.816,220.000 236.260 C 220.000 236.704,219.286 239.842,218.413 243.234 C 217.540 246.625,216.628 250.210,216.386 251.200 C 216.144 252.190,215.762 253.720,215.536 254.600 C 215.310 255.480,214.925 257.134,214.681 258.275 C 214.380 259.684,213.974 260.478,213.419 260.748 C 212.968 260.967,212.844 261.158,213.142 261.173 C 213.810 261.206,215.313 262.439,219.200 266.143 C 220.850 267.715,223.730 270.348,225.600 271.995 C 227.470 273.642,229.135 275.171,229.300 275.394 C 229.500 275.664,229.700 275.666,229.900 275.400 C 230.299 274.868,231.874 274.000,232.440 274.000 C 232.689 274.000,234.511 273.281,236.489 272.403 C 238.468 271.525,241.733 270.241,243.744 269.551 C 245.755 268.861,248.333 267.870,249.474 267.348 C 250.615 266.827,251.735 266.400,251.962 266.400 C 252.190 266.400,253.017 266.040,253.800 265.600 C 254.583 265.160,255.556 264.800,255.962 264.800 C 256.368 264.800,257.758 264.344,259.050 263.786 C 262.083 262.479,262.709 262.208,264.400 261.474 C 265.170 261.140,266.937 260.486,268.327 260.020 C 271.054 259.106,272.400 258.399,272.400 257.880 C 272.400 257.700,272.220 257.664,272.000 257.800 C 271.618 258.036,271.509 257.207,271.432 253.472 C 271.411 252.460,271.165 251.813,270.704 251.554 C 270.321 251.340,269.205 250.470,268.224 249.621 C 266.294 247.950,264.574 247.471,261.661 247.790 C 260.250 247.944,259.964 247.870,260.147 247.395 C 260.445 246.617,259.539 246.815,258.900 247.667 C 258.625 248.034,257.725 248.745,256.900 249.247 C 256.075 249.749,252.579 252.238,249.131 254.780 C 245.683 257.321,241.723 260.210,240.331 261.199 C 223.687 273.033,226.352 272.021,222.000 268.161 C 217.121 263.833,217.009 264.804,223.764 252.862 C 224.554 251.465,225.200 250.229,225.200 250.114 C 225.200 249.999,225.810 248.891,226.555 247.652 C 227.301 246.414,229.125 243.060,230.609 240.200 C 236.050 229.712,237.010 228.014,237.500 228.007 C 237.775 228.003,238.000 227.730,238.000 227.400 C 238.000 227.070,237.745 226.800,237.433 226.800 C 236.673 226.800,236.457 226.036,236.835 224.694 C 237.319 222.981,236.812 220.826,235.763 220.139 C 235.256 219.807,234.481 218.925,234.041 218.180 C 233.542 217.335,232.821 216.734,232.121 216.582 C 231.505 216.448,230.606 216.147,230.124 215.914 C 229.642 215.681,228.671 215.606,227.967 215.747 C 227.262 215.888,226.465 215.820,226.196 215.597 C 225.858 215.316,225.588 215.346,225.326 215.695 M274.600 262.439 C 268.719 264.360,269.384 264.600,280.600 264.600 C 290.319 264.600,290.753 264.568,289.898 263.913 C 286.962 261.665,279.244 260.922,274.600 262.439 M196.482 272.513 C 196.925 279.414,201.868 279.733,202.371 272.893 C 202.560 270.320,202.505 269.747,202.104 270.080 C 201.804 270.329,201.600 271.443,201.600 272.833 C 201.600 274.721,201.432 275.325,200.725 275.984 C 198.890 277.693,197.600 276.427,197.600 272.917 C 197.600 271.159,197.420 270.349,196.941 269.951 C 196.336 269.449,196.299 269.660,196.482 272.513 M95.149 273.061 C 94.449 273.902,94.125 291.224,94.777 292.938 C 95.205 294.066,97.450 295.340,98.196 294.879 C 98.417 294.742,97.947 294.476,97.151 294.287 C 94.949 293.767,94.800 293.072,94.800 283.355 C 94.800 274.939,94.985 273.491,96.160 272.706 C 96.477 272.494,96.474 272.411,96.149 272.406 C 95.901 272.403,95.451 272.697,95.149 273.061 M143.184 273.275 C 143.956 274.104,144.000 274.645,144.000 283.302 C 144.000 293.136,143.881 293.787,142.008 294.198 C 140.828 294.457,139.930 295.200,140.796 295.200 C 141.793 295.200,143.625 293.913,144.193 292.813 C 145.925 289.465,144.752 272.400,142.790 272.400 C 142.558 272.400,142.736 272.794,143.184 273.275 M261.721 273.100 C 261.581 273.485,260.912 274.513,260.234 275.384 C 258.468 277.650,258.552 279.525,260.545 282.400 C 262.109 284.655,263.053 285.479,263.530 285.004 C 263.883 284.653,264.137 274.601,263.825 273.357 C 263.539 272.220,262.104 272.044,261.721 273.100 M297.443 273.033 C 296.256 276.125,297.597 286.703,298.914 284.638 C 299.181 284.219,299.918 283.270,300.550 282.528 C 302.308 280.467,302.249 274.800,300.469 274.800 C 300.264 274.800,299.873 274.260,299.600 273.600 C 299.063 272.303,297.846 271.983,297.443 273.033 M271.400 275.662 C 268.424 277.289,269.411 282.000,272.728 282.000 C 276.140 282.000,277.373 277.337,274.371 275.785 C 273.037 275.095,272.479 275.072,271.400 275.662 M287.000 275.662 C 284.932 276.793,284.537 279.374,286.182 281.018 C 287.383 282.219,288.892 282.274,290.438 281.173 C 293.446 279.031,290.239 273.890,287.000 275.662 M274.784 276.875 C 276.140 278.330,275.790 280.074,273.952 281.025 C 271.265 282.414,268.668 278.932,270.800 276.800 C 271.865 275.735,273.756 275.771,274.784 276.875 M290.145 276.602 C 291.573 278.030,291.281 279.805,289.416 281.026 C 287.440 282.321,285.063 279.865,285.973 277.470 C 286.551 275.951,288.987 275.445,290.145 276.602 " stroke="none" fill="#d8b554" fill-rule="evenodd"></path><path id="path4" d="M117.854 95.229 C 116.650 96.176,116.530 97.036,117.423 98.311 C 118.708 100.147,122.000 98.947,122.000 96.643 C 122.000 95.988,120.160 94.400,119.400 94.400 C 119.129 94.400,118.434 94.773,117.854 95.229 M196.985 101.625 C 196.840 101.858,196.275 102.219,195.729 102.427 C 193.597 103.238,196.969 105.965,200.129 105.987 C 203.701 106.011,206.914 103.382,204.600 102.327 C 204.050 102.077,203.600 101.720,203.600 101.536 C 203.600 101.038,197.295 101.123,196.985 101.625 M266.414 102.374 C 265.786 103.548,265.849 140.489,266.480 141.120 C 266.988 141.628,288.092 141.846,289.367 141.357 C 290.333 140.987,290.333 102.213,289.367 101.843 C 287.481 101.119,266.830 101.597,266.414 102.374 M279.308 110.900 C 279.615 111.782,279.141 112.400,278.157 112.400 C 277.229 112.400,276.803 111.330,277.467 110.667 C 277.916 110.217,279.123 110.370,279.308 110.900 M97.509 113.489 C 95.028 113.859,94.800 114.780,94.800 124.428 C 94.800 129.224,94.972 133.601,95.182 134.154 C 95.656 135.399,98.683 136.423,99.255 135.531 C 99.744 134.767,99.499 113.484,99.000 113.396 C 98.780 113.358,98.109 113.399,97.509 113.489 M107.314 114.037 C 102.027 117.424,104.204 124.400,110.548 124.400 C 114.445 124.400,116.000 122.806,116.000 118.813 L 116.000 116.054 114.259 114.627 C 112.139 112.889,109.461 112.662,107.314 114.037 M124.203 114.563 C 121.776 116.615,121.758 120.961,124.167 123.045 C 129.313 127.496,136.594 121.642,133.157 115.817 C 132.697 115.038,132.091 114.400,131.809 114.400 C 131.528 114.400,131.074 114.130,130.800 113.800 C 129.791 112.584,126.027 113.020,124.203 114.563 M139.481 113.453 C 138.868 114.065,139.159 135.609,139.784 135.849 C 140.662 136.186,143.152 135.238,143.603 134.394 C 144.523 132.675,144.092 115.746,143.100 114.652 C 142.196 113.655,140.005 112.929,139.481 113.453 M113.687 115.700 C 115.341 117.635,115.276 120.488,113.536 122.345 C 110.925 125.131,106.022 122.947,106.006 118.991 C 105.990 114.844,111.088 112.659,113.687 115.700 M131.670 116.200 C 133.074 118.235,133.082 119.671,131.700 121.640 C 128.715 125.895,122.570 122.586,124.026 117.508 C 125.064 113.889,129.546 113.122,131.670 116.200 M179.200 116.600 C 179.200 116.930,179.380 117.200,179.600 117.200 C 180.383 117.200,180.049 119.662,179.237 119.874 C 177.141 120.423,177.604 128.000,179.734 128.000 C 180.232 128.000,180.834 128.194,181.070 128.430 C 181.377 128.737,181.579 128.230,181.775 126.663 C 181.935 125.380,182.378 124.087,182.838 123.556 C 183.272 123.056,183.555 122.456,183.467 122.223 C 183.378 121.991,182.887 120.495,182.374 118.900 C 181.510 116.211,181.361 116.000,180.321 116.000 C 179.591 116.000,179.200 116.209,179.200 116.600 M218.616 117.300 C 217.442 120.110,216.988 123.502,217.682 124.284 C 218.640 125.365,219.300 129.322,219.059 132.540 C 218.920 134.385,218.961 134.974,219.175 134.200 C 219.357 133.540,219.527 131.979,219.553 130.731 C 219.599 128.507,219.628 128.453,221.000 128.000 L 222.400 127.538 222.400 123.526 L 222.400 119.513 221.400 119.764 C 220.226 120.059,219.851 117.786,221.000 117.345 C 222.098 116.923,221.672 116.000,220.380 116.000 C 219.381 116.000,219.061 116.236,218.616 117.300 M199.143 119.100 C 194.863 124.256,195.135 126.000,200.216 126.000 C 204.523 126.000,206.493 124.705,204.292 123.320 C 204.012 123.144,203.563 122.550,203.294 122.000 C 201.660 118.656,200.300 117.706,199.143 119.100 M201.015 120.500 C 201.247 121.438,201.163 121.600,200.443 121.600 C 199.784 121.600,199.600 121.353,199.600 120.467 C 199.600 118.397,200.501 118.419,201.015 120.500 M118.102 121.700 C 115.272 125.274,115.784 127.600,119.400 127.600 C 122.882 127.600,123.414 126.191,121.251 122.700 C 120.285 121.142,118.894 120.700,118.102 121.700 M274.326 123.700 C 274.436 124.283,274.157 124.400,272.653 124.400 C 270.845 124.400,270.125 123.969,270.613 123.179 C 271.058 122.459,274.173 122.896,274.326 123.700 M192.889 128.623 C 190.680 130.170,192.296 132.717,195.501 132.738 C 197.096 132.749,197.174 132.699,196.759 131.924 C 196.243 130.960,196.881 130.329,198.200 130.498 C 198.776 130.571,198.997 130.896,198.988 131.654 C 198.977 132.606,199.123 132.710,200.488 132.729 C 201.834 132.748,201.958 132.669,201.609 132.017 C 201.326 131.487,201.376 131.152,201.789 130.809 C 202.748 130.013,203.802 130.489,203.784 131.711 C 203.770 132.722,203.886 132.800,205.409 132.800 C 208.342 132.800,209.720 130.604,207.874 128.870 C 206.655 127.724,194.459 127.523,192.889 128.623 M111.200 133.133 C 111.200 134.930,111.364 136.400,111.564 136.400 C 111.950 136.400,111.826 130.493,111.432 130.098 C 111.304 129.971,111.200 131.337,111.200 133.133 M126.800 131.176 C 126.800 131.603,126.980 132.064,127.200 132.200 C 127.427 132.340,127.600 132.004,127.600 131.424 C 127.600 130.861,127.420 130.400,127.200 130.400 C 126.980 130.400,126.800 130.749,126.800 131.176 M194.248 130.981 C 194.654 132.039,193.985 132.511,193.151 131.756 C 192.560 131.221,192.499 130.984,192.891 130.736 C 193.636 130.262,193.997 130.328,194.248 130.981 M207.600 131.000 C 207.600 131.330,207.330 131.600,207.000 131.600 C 205.959 131.600,206.296 130.812,207.500 130.432 C 207.555 130.414,207.600 130.670,207.600 131.000 M181.254 133.513 C 181.157 135.855,183.782 140.000,185.361 140.000 C 185.572 140.000,184.996 139.359,184.081 138.577 C 182.502 137.225,181.871 135.931,181.460 133.200 C 181.341 132.414,181.297 132.481,181.254 133.513 M127.067 133.867 C 126.645 134.288,126.756 136.400,127.200 136.400 C 127.420 136.400,127.600 135.770,127.600 135.000 C 127.600 133.561,127.527 133.406,127.067 133.867 M218.432 136.039 C 218.377 137.133,215.672 139.547,213.894 140.086 C 212.002 140.660,190.252 140.835,187.400 140.300 L 185.800 139.999 187.000 140.582 C 189.339 141.717,211.827 141.443,214.533 140.247 C 216.760 139.262,219.050 136.862,218.669 135.913 C 218.530 135.565,218.453 135.606,218.432 136.039 M259.773 246.444 C 259.416 247.022,259.676 247.144,260.571 246.820 C 261.248 246.574,261.262 246.509,260.684 246.287 C 260.322 246.149,259.912 246.219,259.773 246.444 M117.429 254.229 C 116.024 255.633,117.247 258.000,119.377 258.000 C 120.720 258.000,122.000 256.769,122.000 255.476 C 122.000 253.859,118.699 252.958,117.429 254.229 M179.687 261.824 C 177.838 263.119,177.079 265.943,178.100 267.726 C 178.425 268.294,178.670 271.118,178.800 275.800 L 179.000 283.000 180.266 284.800 C 181.190 286.114,181.667 287.410,182.030 289.600 C 185.346 309.564,213.293 309.506,217.061 289.527 C 217.462 287.405,218.049 285.775,218.830 284.617 C 219.474 283.664,220.000 282.449,220.000 281.918 C 220.000 280.350,220.792 279.739,224.800 278.210 C 230.572 276.008,230.530 276.336,225.600 271.995 C 223.730 270.348,220.850 267.715,219.200 266.143 C 212.713 259.962,212.677 259.956,211.574 264.936 L 211.057 267.271 209.828 266.937 C 208.222 266.500,190.642 266.522,188.700 266.964 C 187.210 267.302,187.200 267.297,187.200 266.032 C 187.200 263.151,185.262 261.200,182.400 261.200 C 181.396 261.200,180.178 261.480,179.687 261.824 M272.400 264.800 C 271.190 264.948,274.790 265.074,280.400 265.078 C 286.680 265.084,289.755 264.970,288.400 264.783 C 285.738 264.415,275.452 264.426,272.400 264.800 M196.711 269.823 C 197.465 270.351,197.600 270.817,197.600 272.891 C 197.600 276.427,198.884 277.699,200.725 275.984 C 201.434 275.323,201.600 274.722,201.600 272.807 C 201.600 269.105,205.921 267.827,209.457 270.484 C 209.890 270.809,208.860 276.932,208.190 278.015 C 208.049 278.245,203.936 278.400,197.999 278.400 C 188.167 278.400,188.038 278.411,187.423 279.289 C 186.705 280.314,186.550 285.691,187.190 287.374 L 187.580 288.400 199.310 288.400 C 212.401 288.400,212.000 288.488,212.000 285.600 C 212.000 283.638,212.507 282.800,213.694 282.800 C 215.845 282.800,213.987 287.514,210.448 291.036 C 208.050 293.423,208.000 293.516,208.000 295.647 C 208.000 296.955,207.755 298.171,207.386 298.698 C 205.504 301.385,197.677 302.180,193.572 300.100 L 191.400 299.000 191.200 296.360 C 190.976 293.398,190.796 293.086,187.528 290.000 C 183.878 286.551,182.966 276.793,185.975 273.366 C 189.138 269.762,194.227 268.083,196.711 269.823 M98.200 272.219 C 97.980 272.280,97.336 272.431,96.769 272.555 C 95.017 272.938,94.800 274.132,94.800 283.400 C 94.800 293.111,94.938 293.735,97.218 294.313 C 99.607 294.920,99.600 294.950,99.600 283.369 C 99.600 272.893,99.471 271.865,98.200 272.219 M108.018 272.297 C 102.376 274.474,104.218 283.497,110.322 283.586 C 115.331 283.660,118.220 276.579,114.400 273.588 C 113.005 272.495,109.396 271.765,108.018 272.297 M124.658 273.090 C 120.448 276.086,122.635 283.406,127.737 283.397 C 135.740 283.382,136.421 272.710,128.452 272.197 C 126.447 272.068,125.921 272.192,124.658 273.090 M139.631 272.529 C 139.053 273.107,139.031 294.248,139.608 294.605 C 140.184 294.961,142.902 294.036,143.500 293.279 C 144.259 292.320,144.184 274.477,143.417 273.465 C 142.720 272.545,140.230 271.930,139.631 272.529 M113.613 274.414 C 116.671 277.541,114.159 282.797,109.767 282.463 C 108.108 282.337,106.000 279.668,106.000 277.693 C 106.000 273.707,110.871 271.608,113.613 274.414 M131.446 274.678 C 133.238 276.634,133.252 278.219,131.500 280.601 C 129.258 283.650,125.080 282.855,124.021 279.178 C 122.636 274.370,128.120 271.047,131.446 274.678 M270.800 276.800 C 268.668 278.932,271.265 282.414,273.952 281.025 C 275.790 280.074,276.140 278.330,274.784 276.875 C 273.756 275.771,271.865 275.735,270.800 276.800 M286.874 276.274 C 286.585 276.389,286.180 276.928,285.973 277.470 C 285.063 279.865,287.440 282.321,289.416 281.026 C 292.652 278.906,290.474 274.834,286.874 276.274 M194.300 280.304 C 195.082 280.815,195.200 281.236,195.200 283.515 C 195.200 286.847,194.614 287.600,192.018 287.600 C 189.481 287.600,189.200 287.191,189.200 283.501 L 189.200 280.361 190.500 279.800 C 191.869 279.208,192.816 279.334,194.300 280.304 M117.768 281.006 C 115.122 284.475,115.795 286.400,119.653 286.400 C 122.880 286.400,123.463 284.803,121.365 281.709 C 119.868 279.501,119.040 279.339,117.768 281.006 M207.994 280.700 C 207.991 281.305,207.833 282.045,207.643 282.344 C 207.016 283.334,207.591 284.346,208.738 284.270 C 209.955 284.190,210.365 285.370,209.611 286.779 C 209.158 287.625,205.982 287.977,204.960 287.294 C 203.380 286.239,203.074 282.011,204.470 280.526 C 205.799 279.111,208.002 279.220,207.994 280.700 M111.200 291.957 C 111.200 293.767,111.356 295.151,111.547 295.033 C 111.923 294.800,111.823 289.290,111.436 288.902 C 111.306 288.773,111.200 290.147,111.200 291.957 M126.800 289.976 C 126.800 290.403,126.980 290.864,127.200 291.000 C 127.427 291.140,127.600 290.804,127.600 290.224 C 127.600 289.661,127.420 289.200,127.200 289.200 C 126.980 289.200,126.800 289.549,126.800 289.976 M194.080 292.480 C 193.816 292.744,193.600 293.338,193.600 293.800 C 193.600 295.390,194.306 295.600,199.666 295.600 C 205.356 295.600,206.262 295.170,205.250 292.949 C 204.749 291.850,195.115 291.445,194.080 292.480 M127.067 292.667 C 126.645 293.088,126.756 295.200,127.200 295.200 C 127.420 295.200,127.600 294.570,127.600 293.800 C 127.600 292.361,127.527 292.206,127.067 292.667 " stroke="none" fill="#a8625f" fill-rule="evenodd"></path></g></svg>